%TF.GenerationSoftware,KiCad,Pcbnew,7.0.9*%
%TF.CreationDate,2025-02-13T17:11:31+01:00*%
%TF.ProjectId,bike lights,62696b65-206c-4696-9768-74732e6b6963,rev?*%
%TF.SameCoordinates,Original*%
%TF.FileFunction,Soldermask,Bot*%
%TF.FilePolarity,Negative*%
%FSLAX46Y46*%
G04 Gerber Fmt 4.6, Leading zero omitted, Abs format (unit mm)*
G04 Created by KiCad (PCBNEW 7.0.9) date 2025-02-13 17:11:31*
%MOMM*%
%LPD*%
G01*
G04 APERTURE LIST*
G04 Aperture macros list*
%AMRoundRect*
0 Rectangle with rounded corners*
0 $1 Rounding radius*
0 $2 $3 $4 $5 $6 $7 $8 $9 X,Y pos of 4 corners*
0 Add a 4 corners polygon primitive as box body*
4,1,4,$2,$3,$4,$5,$6,$7,$8,$9,$2,$3,0*
0 Add four circle primitives for the rounded corners*
1,1,$1+$1,$2,$3*
1,1,$1+$1,$4,$5*
1,1,$1+$1,$6,$7*
1,1,$1+$1,$8,$9*
0 Add four rect primitives between the rounded corners*
20,1,$1+$1,$2,$3,$4,$5,0*
20,1,$1+$1,$4,$5,$6,$7,0*
20,1,$1+$1,$6,$7,$8,$9,0*
20,1,$1+$1,$8,$9,$2,$3,0*%
G04 Aperture macros list end*
%ADD10R,1.800000X1.800000*%
%ADD11C,1.800000*%
%ADD12R,1.600000X1.600000*%
%ADD13C,1.600000*%
%ADD14O,1.950000X1.700000*%
%ADD15O,1.600000X1.600000*%
%ADD16O,1.700000X2.000000*%
%ADD17O,1.700000X1.950000*%
%ADD18RoundRect,0.250000X-0.600000X-0.725000X0.600000X-0.725000X0.600000X0.725000X-0.600000X0.725000X0*%
%ADD19RoundRect,0.250000X-0.600000X-0.750000X0.600000X-0.750000X0.600000X0.750000X-0.600000X0.750000X0*%
G04 APERTURE END LIST*
D10*
%TO.C,C*%
X170180000Y-63500000D03*
D11*
X172720000Y-63500000D03*
%TD*%
D12*
%TO.C,C4*%
X139700000Y-148828888D03*
D13*
X139700000Y-151328888D03*
%TD*%
D14*
%TO.C,REF\u002A\u002A*%
X167386000Y-144667000D03*
X167386000Y-142167000D03*
X167386000Y-139667000D03*
X167386000Y-137167000D03*
X167386000Y-134667000D03*
%TD*%
D13*
%TO.C,R4*%
X151384000Y-102616000D03*
D15*
X161544000Y-102616000D03*
%TD*%
D13*
%TO.C,R6*%
X120904000Y-102616000D03*
D15*
X131064000Y-102616000D03*
%TD*%
D10*
%TO.C,F*%
X124460000Y-63500000D03*
D11*
X127000000Y-63500000D03*
%TD*%
D10*
%TO.C,B*%
X185674000Y-97536000D03*
D11*
X188214000Y-97536000D03*
%TD*%
D13*
%TO.C,R5*%
X135890000Y-68580000D03*
D15*
X146050000Y-68580000D03*
%TD*%
D10*
%TO.C,A*%
X200660000Y-63500000D03*
D11*
X203200000Y-63500000D03*
%TD*%
D10*
%TO.C,A*%
X200914000Y-97536000D03*
D11*
X203454000Y-97536000D03*
%TD*%
D13*
%TO.C,R5*%
X136144000Y-102616000D03*
D15*
X146304000Y-102616000D03*
%TD*%
D12*
%TO.C,C3*%
X146304000Y-148828888D03*
D13*
X146304000Y-151328888D03*
%TD*%
%TO.C,R8*%
X90170000Y-68580000D03*
D15*
X100330000Y-68580000D03*
%TD*%
D13*
%TO.C,R7*%
X105664000Y-102616000D03*
D15*
X115824000Y-102616000D03*
%TD*%
D10*
%TO.C,H*%
X93980000Y-63500000D03*
D11*
X96520000Y-63500000D03*
%TD*%
D13*
%TO.C,R1*%
X197104000Y-102616000D03*
D15*
X207264000Y-102616000D03*
%TD*%
D10*
%TO.C,F*%
X124714000Y-97536000D03*
D11*
X127254000Y-97536000D03*
%TD*%
D13*
%TO.C,R2*%
X181610000Y-68580000D03*
D15*
X191770000Y-68580000D03*
%TD*%
D13*
%TO.C,R7*%
X105410000Y-68580000D03*
D15*
X115570000Y-68580000D03*
%TD*%
D16*
%TO.C,SW1*%
X150134000Y-156846000D03*
X152634000Y-156846000D03*
%TD*%
D10*
%TO.C,C*%
X170434000Y-97536000D03*
D11*
X172974000Y-97536000D03*
%TD*%
D13*
%TO.C,R3*%
X166624000Y-102616000D03*
D15*
X176784000Y-102616000D03*
%TD*%
D12*
%TO.C,MSP430G2553*%
X160528000Y-132762000D03*
D15*
X157988000Y-132762000D03*
X155448000Y-132762000D03*
X152908000Y-132762000D03*
X150368000Y-132762000D03*
X147828000Y-132762000D03*
X145288000Y-132762000D03*
X142748000Y-132762000D03*
X140208000Y-132762000D03*
X137668000Y-132762000D03*
X137668000Y-140382000D03*
X140208000Y-140382000D03*
X142748000Y-140382000D03*
X145288000Y-140382000D03*
X147828000Y-140382000D03*
X150368000Y-140382000D03*
X152908000Y-140382000D03*
X155448000Y-140382000D03*
X157988000Y-140382000D03*
X160528000Y-140382000D03*
%TD*%
D13*
%TO.C,R3*%
X166370000Y-68580000D03*
D15*
X176530000Y-68580000D03*
%TD*%
D17*
%TO.C,SW2*%
X137240000Y-156846000D03*
D18*
X139740000Y-156846000D03*
D17*
X142240000Y-156846000D03*
%TD*%
D15*
%TO.C,SN54HC595*%
X157719000Y-107706000D03*
X155179000Y-107706000D03*
X152639000Y-107706000D03*
X150099000Y-107706000D03*
X147559000Y-107706000D03*
X145019000Y-107706000D03*
X142479000Y-107706000D03*
X139939000Y-107706000D03*
X139939000Y-115326000D03*
X142479000Y-115326000D03*
X145019000Y-115326000D03*
X147559000Y-115326000D03*
X150099000Y-115326000D03*
X152639000Y-115326000D03*
X155179000Y-115326000D03*
D12*
X157719000Y-115326000D03*
%TD*%
D10*
%TO.C,G*%
X109474000Y-97536000D03*
D11*
X112014000Y-97536000D03*
%TD*%
D13*
%TO.C,R1*%
X160528000Y-144446000D03*
D15*
X150368000Y-144446000D03*
%TD*%
D14*
%TO.C,REF\u002A\u002A*%
X130556000Y-144620000D03*
X130556000Y-142120000D03*
X130556000Y-139620000D03*
X130556000Y-137120000D03*
X130556000Y-134620000D03*
%TD*%
D17*
%TO.C,REF\u002A\u002A*%
X143844000Y-121366000D03*
X146344000Y-121366000D03*
X148844000Y-121366000D03*
X151344000Y-121366000D03*
X153844000Y-121366000D03*
%TD*%
D13*
%TO.C,R8*%
X90424000Y-102616000D03*
D15*
X100584000Y-102616000D03*
%TD*%
D13*
%TO.C,R1*%
X196850000Y-68580000D03*
D15*
X207010000Y-68580000D03*
%TD*%
D13*
%TO.C,R6*%
X120650000Y-68580000D03*
D15*
X130810000Y-68580000D03*
%TD*%
D10*
%TO.C,D*%
X155194000Y-97536000D03*
D11*
X157734000Y-97536000D03*
%TD*%
D10*
%TO.C,G*%
X109220000Y-63500000D03*
D11*
X111760000Y-63500000D03*
%TD*%
D10*
%TO.C,B*%
X185420000Y-63500000D03*
D11*
X187960000Y-63500000D03*
%TD*%
D10*
%TO.C,H*%
X94234000Y-97536000D03*
D11*
X96774000Y-97536000D03*
%TD*%
D12*
%TO.C,C2*%
X152908000Y-149018000D03*
D13*
X152908000Y-151518000D03*
%TD*%
%TO.C,R4*%
X151130000Y-68580000D03*
D15*
X161290000Y-68580000D03*
%TD*%
D10*
%TO.C,E*%
X139700000Y-63500000D03*
D11*
X142240000Y-63500000D03*
%TD*%
D13*
%TO.C,R2*%
X181864000Y-102616000D03*
D15*
X192024000Y-102616000D03*
%TD*%
D10*
%TO.C,E*%
X139954000Y-97536000D03*
D11*
X142494000Y-97536000D03*
%TD*%
D15*
%TO.C,SN54HC595*%
X157465000Y-73670000D03*
X154925000Y-73670000D03*
X152385000Y-73670000D03*
X149845000Y-73670000D03*
X147305000Y-73670000D03*
X144765000Y-73670000D03*
X142225000Y-73670000D03*
X139685000Y-73670000D03*
X139685000Y-81290000D03*
X142225000Y-81290000D03*
X144765000Y-81290000D03*
X147305000Y-81290000D03*
X149845000Y-81290000D03*
X152385000Y-81290000D03*
X154925000Y-81290000D03*
D12*
X157465000Y-81290000D03*
%TD*%
D19*
%TO.C,PWR*%
X160294000Y-156846000D03*
D16*
X162794000Y-156846000D03*
%TD*%
D18*
%TO.C,REF\u002A\u002A*%
X143590000Y-87330000D03*
D17*
X146090000Y-87330000D03*
X148590000Y-87330000D03*
X151090000Y-87330000D03*
X153590000Y-87330000D03*
%TD*%
D10*
%TO.C,D*%
X154940000Y-63500000D03*
D11*
X157480000Y-63500000D03*
%TD*%
D12*
%TO.C,C1*%
X159512000Y-149058000D03*
D13*
X159512000Y-151558000D03*
%TD*%
M02*
