%TF.GenerationSoftware,KiCad,Pcbnew,7.0.9*%
%TF.CreationDate,2025-02-13T17:11:31+01:00*%
%TF.ProjectId,bike lights,62696b65-206c-4696-9768-74732e6b6963,rev?*%
%TF.SameCoordinates,Original*%
%TF.FileFunction,Copper,L1,Top*%
%TF.FilePolarity,Positive*%
%FSLAX46Y46*%
G04 Gerber Fmt 4.6, Leading zero omitted, Abs format (unit mm)*
G04 Created by KiCad (PCBNEW 7.0.9) date 2025-02-13 17:11:31*
%MOMM*%
%LPD*%
G01*
G04 APERTURE LIST*
G04 Aperture macros list*
%AMRoundRect*
0 Rectangle with rounded corners*
0 $1 Rounding radius*
0 $2 $3 $4 $5 $6 $7 $8 $9 X,Y pos of 4 corners*
0 Add a 4 corners polygon primitive as box body*
4,1,4,$2,$3,$4,$5,$6,$7,$8,$9,$2,$3,0*
0 Add four circle primitives for the rounded corners*
1,1,$1+$1,$2,$3*
1,1,$1+$1,$4,$5*
1,1,$1+$1,$6,$7*
1,1,$1+$1,$8,$9*
0 Add four rect primitives between the rounded corners*
20,1,$1+$1,$2,$3,$4,$5,0*
20,1,$1+$1,$4,$5,$6,$7,0*
20,1,$1+$1,$6,$7,$8,$9,0*
20,1,$1+$1,$8,$9,$2,$3,0*%
G04 Aperture macros list end*
%TA.AperFunction,ComponentPad*%
%ADD10R,1.800000X1.800000*%
%TD*%
%TA.AperFunction,ComponentPad*%
%ADD11C,1.800000*%
%TD*%
%TA.AperFunction,ComponentPad*%
%ADD12R,1.600000X1.600000*%
%TD*%
%TA.AperFunction,ComponentPad*%
%ADD13C,1.600000*%
%TD*%
%TA.AperFunction,ComponentPad*%
%ADD14O,1.950000X1.700000*%
%TD*%
%TA.AperFunction,ComponentPad*%
%ADD15O,1.600000X1.600000*%
%TD*%
%TA.AperFunction,ComponentPad*%
%ADD16O,1.700000X2.000000*%
%TD*%
%TA.AperFunction,ComponentPad*%
%ADD17O,1.700000X1.950000*%
%TD*%
%TA.AperFunction,ComponentPad*%
%ADD18RoundRect,0.250000X-0.600000X-0.725000X0.600000X-0.725000X0.600000X0.725000X-0.600000X0.725000X0*%
%TD*%
%TA.AperFunction,ComponentPad*%
%ADD19RoundRect,0.250000X-0.600000X-0.750000X0.600000X-0.750000X0.600000X0.750000X-0.600000X0.750000X0*%
%TD*%
G04 APERTURE END LIST*
D10*
%TO.P,C,1*%
%TO.N,LED*%
X170180000Y-63500000D03*
D11*
%TO.P,C,2*%
%TO.N,GND*%
X172720000Y-63500000D03*
%TD*%
D12*
%TO.P,C4,1*%
%TO.N,SWITCH_1*%
X139700000Y-148828888D03*
D13*
%TO.P,C4,2*%
%TO.N,GND*%
X139700000Y-151328888D03*
%TD*%
D14*
%TO.P,REF\u002A\u002A,1*%
%TO.N,GND*%
X167386000Y-144667000D03*
%TO.P,REF\u002A\u002A,2*%
%TO.N,VCC*%
X167386000Y-142167000D03*
%TO.P,REF\u002A\u002A,3*%
%TO.N,CLOCK*%
X167386000Y-139667000D03*
%TO.P,REF\u002A\u002A,4*%
%TO.N,LATCH_2*%
X167386000Y-137167000D03*
%TO.P,REF\u002A\u002A,5*%
%TO.N,DATA*%
X167386000Y-134667000D03*
%TD*%
D13*
%TO.P,R4,1*%
%TO.N,LED*%
X151384000Y-102616000D03*
D15*
%TO.P,R4,2*%
%TO.N,OUT*%
X161544000Y-102616000D03*
%TD*%
D13*
%TO.P,R6,1*%
%TO.N,LED*%
X120904000Y-102616000D03*
D15*
%TO.P,R6,2*%
%TO.N,OUT*%
X131064000Y-102616000D03*
%TD*%
D10*
%TO.P,F,1*%
%TO.N,LED*%
X124460000Y-63500000D03*
D11*
%TO.P,F,2*%
%TO.N,GND*%
X127000000Y-63500000D03*
%TD*%
D10*
%TO.P,B,1*%
%TO.N,LED*%
X185674000Y-97536000D03*
D11*
%TO.P,B,2*%
%TO.N,GND*%
X188214000Y-97536000D03*
%TD*%
D13*
%TO.P,R5,1*%
%TO.N,LED*%
X135890000Y-68580000D03*
D15*
%TO.P,R5,2*%
%TO.N,OUT*%
X146050000Y-68580000D03*
%TD*%
D10*
%TO.P,A,1*%
%TO.N,LED*%
X200660000Y-63500000D03*
D11*
%TO.P,A,2*%
%TO.N,GND*%
X203200000Y-63500000D03*
%TD*%
D10*
%TO.P,A,1*%
%TO.N,LED*%
X200914000Y-97536000D03*
D11*
%TO.P,A,2*%
%TO.N,GND*%
X203454000Y-97536000D03*
%TD*%
D13*
%TO.P,R5,1*%
%TO.N,LED*%
X136144000Y-102616000D03*
D15*
%TO.P,R5,2*%
%TO.N,OUT*%
X146304000Y-102616000D03*
%TD*%
D12*
%TO.P,C3,1*%
%TO.N,SWITCH_2*%
X146304000Y-148828888D03*
D13*
%TO.P,C3,2*%
%TO.N,GND*%
X146304000Y-151328888D03*
%TD*%
%TO.P,R8,1*%
%TO.N,LED*%
X90170000Y-68580000D03*
D15*
%TO.P,R8,2*%
%TO.N,OUT*%
X100330000Y-68580000D03*
%TD*%
D13*
%TO.P,R7,1*%
%TO.N,LED*%
X105664000Y-102616000D03*
D15*
%TO.P,R7,2*%
%TO.N,OUT*%
X115824000Y-102616000D03*
%TD*%
D10*
%TO.P,H,1*%
%TO.N,LED*%
X93980000Y-63500000D03*
D11*
%TO.P,H,2*%
%TO.N,GND*%
X96520000Y-63500000D03*
%TD*%
D13*
%TO.P,R1,1*%
%TO.N,LED*%
X197104000Y-102616000D03*
D15*
%TO.P,R1,2*%
%TO.N,OUT*%
X207264000Y-102616000D03*
%TD*%
D10*
%TO.P,F,1*%
%TO.N,LED*%
X124714000Y-97536000D03*
D11*
%TO.P,F,2*%
%TO.N,GND*%
X127254000Y-97536000D03*
%TD*%
D13*
%TO.P,R2,1*%
%TO.N,LED*%
X181610000Y-68580000D03*
D15*
%TO.P,R2,2*%
%TO.N,OUT*%
X191770000Y-68580000D03*
%TD*%
D13*
%TO.P,R7,1*%
%TO.N,LED*%
X105410000Y-68580000D03*
D15*
%TO.P,R7,2*%
%TO.N,OUT*%
X115570000Y-68580000D03*
%TD*%
D16*
%TO.P,SW1,1*%
%TO.N,VCC*%
X150134000Y-156846000D03*
%TO.P,SW1,2*%
X152634000Y-156846000D03*
%TD*%
D10*
%TO.P,C,1*%
%TO.N,LED*%
X170434000Y-97536000D03*
D11*
%TO.P,C,2*%
%TO.N,GND*%
X172974000Y-97536000D03*
%TD*%
D13*
%TO.P,R3,1*%
%TO.N,LED*%
X166624000Y-102616000D03*
D15*
%TO.P,R3,2*%
%TO.N,OUT*%
X176784000Y-102616000D03*
%TD*%
D12*
%TO.P,MSP430G2553,1*%
%TO.N,VCC*%
X160528000Y-132762000D03*
D15*
%TO.P,MSP430G2553,2*%
%TO.N,N/C*%
X157988000Y-132762000D03*
%TO.P,MSP430G2553,3*%
X155448000Y-132762000D03*
%TO.P,MSP430G2553,4*%
%TO.N,CLOCK*%
X152908000Y-132762000D03*
%TO.P,MSP430G2553,5*%
%TO.N,DATA*%
X150368000Y-132762000D03*
%TO.P,MSP430G2553,6*%
%TO.N,LATCH_2*%
X147828000Y-132762000D03*
%TO.P,MSP430G2553,7*%
%TO.N,LATCH_1*%
X145288000Y-132762000D03*
%TO.P,MSP430G2553,8*%
%TO.N,N/C*%
X142748000Y-132762000D03*
%TO.P,MSP430G2553,9*%
X140208000Y-132762000D03*
%TO.P,MSP430G2553,10*%
X137668000Y-132762000D03*
%TO.P,MSP430G2553,11*%
%TO.N,SWITCH_1*%
X137668000Y-140382000D03*
%TO.P,MSP430G2553,12*%
%TO.N,SWITCH_2*%
X140208000Y-140382000D03*
%TO.P,MSP430G2553,13*%
%TO.N,N/C*%
X142748000Y-140382000D03*
%TO.P,MSP430G2553,14*%
X145288000Y-140382000D03*
%TO.P,MSP430G2553,15*%
X147828000Y-140382000D03*
%TO.P,MSP430G2553,16*%
%TO.N,RESET*%
X150368000Y-140382000D03*
%TO.P,MSP430G2553,17*%
%TO.N,N/C*%
X152908000Y-140382000D03*
%TO.P,MSP430G2553,18*%
X155448000Y-140382000D03*
%TO.P,MSP430G2553,19*%
X157988000Y-140382000D03*
%TO.P,MSP430G2553,20*%
%TO.N,GND*%
X160528000Y-140382000D03*
%TD*%
D13*
%TO.P,R3,1*%
%TO.N,LED*%
X166370000Y-68580000D03*
D15*
%TO.P,R3,2*%
%TO.N,OUT*%
X176530000Y-68580000D03*
%TD*%
D17*
%TO.P,SW2,1*%
%TO.N,SWITCH_1*%
X137240000Y-156846000D03*
D18*
%TO.P,SW2,2*%
%TO.N,GND*%
X139740000Y-156846000D03*
D17*
%TO.P,SW2,3*%
%TO.N,SWITCH_2*%
X142240000Y-156846000D03*
%TD*%
D15*
%TO.P,SN54HC595,1*%
%TO.N,OUT*%
X157719000Y-107706000D03*
%TO.P,SN54HC595,2*%
X155179000Y-107706000D03*
%TO.P,SN54HC595,3*%
X152639000Y-107706000D03*
%TO.P,SN54HC595,4*%
X150099000Y-107706000D03*
%TO.P,SN54HC595,5*%
X147559000Y-107706000D03*
%TO.P,SN54HC595,6*%
X145019000Y-107706000D03*
%TO.P,SN54HC595,7*%
X142479000Y-107706000D03*
%TO.P,SN54HC595,8*%
%TO.N,GND*%
X139939000Y-107706000D03*
%TO.P,SN54HC595,9*%
%TO.N,N/C*%
X139939000Y-115326000D03*
%TO.P,SN54HC595,10*%
%TO.N,VCC*%
X142479000Y-115326000D03*
%TO.P,SN54HC595,11*%
%TO.N,CLOCK*%
X145019000Y-115326000D03*
%TO.P,SN54HC595,12*%
%TO.N,LATCH*%
X147559000Y-115326000D03*
%TO.P,SN54HC595,13*%
%TO.N,GND*%
X150099000Y-115326000D03*
%TO.P,SN54HC595,14*%
%TO.N,DATA*%
X152639000Y-115326000D03*
%TO.P,SN54HC595,15*%
%TO.N,OUT*%
X155179000Y-115326000D03*
D12*
%TO.P,SN54HC595,16*%
%TO.N,VCC*%
X157719000Y-115326000D03*
%TD*%
D10*
%TO.P,G,1*%
%TO.N,LED*%
X109474000Y-97536000D03*
D11*
%TO.P,G,2*%
%TO.N,GND*%
X112014000Y-97536000D03*
%TD*%
D13*
%TO.P,R1,1*%
%TO.N,VCC*%
X160528000Y-144446000D03*
D15*
%TO.P,R1,2*%
%TO.N,RESET*%
X150368000Y-144446000D03*
%TD*%
D14*
%TO.P,REF\u002A\u002A,1*%
%TO.N,GND*%
X130556000Y-144620000D03*
%TO.P,REF\u002A\u002A,2*%
%TO.N,VCC*%
X130556000Y-142120000D03*
%TO.P,REF\u002A\u002A,3*%
%TO.N,CLOCK*%
X130556000Y-139620000D03*
%TO.P,REF\u002A\u002A,4*%
%TO.N,LATCH_1*%
X130556000Y-137120000D03*
%TO.P,REF\u002A\u002A,5*%
%TO.N,DATA*%
X130556000Y-134620000D03*
%TD*%
D17*
%TO.P,REF\u002A\u002A,1*%
%TO.N,GND*%
X143844000Y-121366000D03*
%TO.P,REF\u002A\u002A,2*%
%TO.N,VCC*%
X146344000Y-121366000D03*
%TO.P,REF\u002A\u002A,3*%
%TO.N,CLOCK*%
X148844000Y-121366000D03*
%TO.P,REF\u002A\u002A,4*%
%TO.N,LATCH*%
X151344000Y-121366000D03*
%TO.P,REF\u002A\u002A,5*%
%TO.N,DATA*%
X153844000Y-121366000D03*
%TD*%
D13*
%TO.P,R8,1*%
%TO.N,LED*%
X90424000Y-102616000D03*
D15*
%TO.P,R8,2*%
%TO.N,OUT*%
X100584000Y-102616000D03*
%TD*%
D13*
%TO.P,R1,1*%
%TO.N,LED*%
X196850000Y-68580000D03*
D15*
%TO.P,R1,2*%
%TO.N,OUT*%
X207010000Y-68580000D03*
%TD*%
D13*
%TO.P,R6,1*%
%TO.N,LED*%
X120650000Y-68580000D03*
D15*
%TO.P,R6,2*%
%TO.N,OUT*%
X130810000Y-68580000D03*
%TD*%
D10*
%TO.P,D,1*%
%TO.N,LED*%
X155194000Y-97536000D03*
D11*
%TO.P,D,2*%
%TO.N,GND*%
X157734000Y-97536000D03*
%TD*%
D10*
%TO.P,G,1*%
%TO.N,LED*%
X109220000Y-63500000D03*
D11*
%TO.P,G,2*%
%TO.N,GND*%
X111760000Y-63500000D03*
%TD*%
D10*
%TO.P,B,1*%
%TO.N,LED*%
X185420000Y-63500000D03*
D11*
%TO.P,B,2*%
%TO.N,GND*%
X187960000Y-63500000D03*
%TD*%
D10*
%TO.P,H,1*%
%TO.N,LED*%
X94234000Y-97536000D03*
D11*
%TO.P,H,2*%
%TO.N,GND*%
X96774000Y-97536000D03*
%TD*%
D12*
%TO.P,C2,1*%
%TO.N,RESET*%
X152908000Y-149018000D03*
D13*
%TO.P,C2,2*%
%TO.N,GND*%
X152908000Y-151518000D03*
%TD*%
%TO.P,R4,1*%
%TO.N,LED*%
X151130000Y-68580000D03*
D15*
%TO.P,R4,2*%
%TO.N,OUT*%
X161290000Y-68580000D03*
%TD*%
D10*
%TO.P,E,1*%
%TO.N,LED*%
X139700000Y-63500000D03*
D11*
%TO.P,E,2*%
%TO.N,GND*%
X142240000Y-63500000D03*
%TD*%
D13*
%TO.P,R2,1*%
%TO.N,LED*%
X181864000Y-102616000D03*
D15*
%TO.P,R2,2*%
%TO.N,OUT*%
X192024000Y-102616000D03*
%TD*%
D10*
%TO.P,E,1*%
%TO.N,LED*%
X139954000Y-97536000D03*
D11*
%TO.P,E,2*%
%TO.N,GND*%
X142494000Y-97536000D03*
%TD*%
D15*
%TO.P,SN54HC595,1*%
%TO.N,OUT*%
X157465000Y-73670000D03*
%TO.P,SN54HC595,2*%
X154925000Y-73670000D03*
%TO.P,SN54HC595,3*%
X152385000Y-73670000D03*
%TO.P,SN54HC595,4*%
X149845000Y-73670000D03*
%TO.P,SN54HC595,5*%
X147305000Y-73670000D03*
%TO.P,SN54HC595,6*%
X144765000Y-73670000D03*
%TO.P,SN54HC595,7*%
X142225000Y-73670000D03*
%TO.P,SN54HC595,8*%
%TO.N,GND*%
X139685000Y-73670000D03*
%TO.P,SN54HC595,9*%
%TO.N,N/C*%
X139685000Y-81290000D03*
%TO.P,SN54HC595,10*%
%TO.N,VCC*%
X142225000Y-81290000D03*
%TO.P,SN54HC595,11*%
%TO.N,CLOCK*%
X144765000Y-81290000D03*
%TO.P,SN54HC595,12*%
%TO.N,LATCH*%
X147305000Y-81290000D03*
%TO.P,SN54HC595,13*%
%TO.N,GND*%
X149845000Y-81290000D03*
%TO.P,SN54HC595,14*%
%TO.N,DATA*%
X152385000Y-81290000D03*
%TO.P,SN54HC595,15*%
%TO.N,OUT*%
X154925000Y-81290000D03*
D12*
%TO.P,SN54HC595,16*%
%TO.N,VCC*%
X157465000Y-81290000D03*
%TD*%
D19*
%TO.P,PWR,1*%
%TO.N,VCC*%
X160294000Y-156846000D03*
D16*
%TO.P,PWR,2*%
%TO.N,GND*%
X162794000Y-156846000D03*
%TD*%
D18*
%TO.P,REF\u002A\u002A,1*%
%TO.N,GND*%
X143590000Y-87330000D03*
D17*
%TO.P,REF\u002A\u002A,2*%
%TO.N,VCC*%
X146090000Y-87330000D03*
%TO.P,REF\u002A\u002A,3*%
%TO.N,CLOCK*%
X148590000Y-87330000D03*
%TO.P,REF\u002A\u002A,4*%
%TO.N,LATCH*%
X151090000Y-87330000D03*
%TO.P,REF\u002A\u002A,5*%
%TO.N,DATA*%
X153590000Y-87330000D03*
%TD*%
D10*
%TO.P,D,1*%
%TO.N,LED*%
X154940000Y-63500000D03*
D11*
%TO.P,D,2*%
%TO.N,GND*%
X157480000Y-63500000D03*
%TD*%
D12*
%TO.P,C1,1*%
%TO.N,VCC*%
X159512000Y-149058000D03*
D13*
%TO.P,C1,2*%
%TO.N,GND*%
X159512000Y-151558000D03*
%TD*%
M02*
