M48
; DRILL file {KiCad 7.0.9} date 
; FORMAT={-:-/ absolute / inch / decimal}
; #@! TF.CreationDate,2025-02-13T17:11:34+01:00
; #@! TF.GenerationSoftware,Kicad,Pcbnew,7.0.9
; #@! TF.FileFunction,Plated,1,2,PTH
FMAT,2
INCH
; #@! TA.AperFunction,Plated,PTH,ComponentDrill
T1C0.0315
; #@! TA.AperFunction,Plated,PTH,ComponentDrill
T2C0.0354
; #@! TA.AperFunction,Plated,PTH,ComponentDrill
T3C0.0374
; #@! TA.AperFunction,Plated,PTH,ComponentDrill
T4C0.0394
%
G90
G05
T1
X3.55Y-2.7
X3.56Y-4.04
X3.95Y-2.7
X3.96Y-4.04
X4.15Y-2.7
X4.16Y-4.04
X4.55Y-2.7
X4.56Y-4.04
X4.75Y-2.7
X4.76Y-4.04
X5.15Y-2.7
X5.16Y-4.04
X5.35Y-2.7
X5.36Y-4.04
X5.42Y-5.2269
X5.42Y-5.5269
X5.4994Y-2.9004
X5.4994Y-3.2004
X5.5Y-5.8594
X5.5Y-5.9578
X5.5094Y-4.2404
X5.5094Y-4.5404
X5.52Y-5.2269
X5.52Y-5.5269
X5.5994Y-2.9004
X5.5994Y-3.2004
X5.6094Y-4.2404
X5.6094Y-4.5404
X5.62Y-5.2269
X5.62Y-5.5269
X5.6994Y-2.9004
X5.6994Y-3.2004
X5.7094Y-4.2404
X5.7094Y-4.5404
X5.72Y-5.2269
X5.72Y-5.5269
X5.75Y-2.7
X5.76Y-4.04
X5.76Y-5.8594
X5.76Y-5.9578
X5.7994Y-2.9004
X5.7994Y-3.2004
X5.8094Y-4.2404
X5.8094Y-4.5404
X5.82Y-5.2269
X5.82Y-5.5269
X5.8994Y-2.9004
X5.8994Y-3.2004
X5.9094Y-4.2404
X5.9094Y-4.5404
X5.92Y-5.2269
X5.92Y-5.5269
X5.92Y-5.6869
X5.95Y-2.7
X5.96Y-4.04
X5.9994Y-2.9004
X5.9994Y-3.2004
X6.0094Y-4.2404
X6.0094Y-4.5404
X6.02Y-5.2269
X6.02Y-5.5269
X6.02Y-5.8669
X6.02Y-5.9653
X6.0994Y-2.9004
X6.0994Y-3.2004
X6.1094Y-4.2404
X6.1094Y-4.5404
X6.12Y-5.2269
X6.12Y-5.5269
X6.1994Y-2.9004
X6.1994Y-3.2004
X6.2094Y-4.2404
X6.2094Y-4.5404
X6.22Y-5.2269
X6.22Y-5.5269
X6.28Y-5.8684
X6.28Y-5.9669
X6.32Y-5.2269
X6.32Y-5.5269
X6.32Y-5.6869
X6.35Y-2.7
X6.36Y-4.04
X6.55Y-2.7
X6.56Y-4.04
X6.95Y-2.7
X6.96Y-4.04
X7.15Y-2.7
X7.16Y-4.04
X7.55Y-2.7
X7.56Y-4.04
X7.75Y-2.7
X7.76Y-4.04
X8.15Y-2.7
X8.16Y-4.04
T2
X3.7Y-2.5
X3.71Y-3.84
X3.8Y-2.5
X3.81Y-3.84
X4.3Y-2.5
X4.31Y-3.84
X4.4Y-2.5
X4.41Y-3.84
X4.9Y-2.5
X4.91Y-3.84
X5.0Y-2.5
X5.01Y-3.84
X5.5Y-2.5
X5.51Y-3.84
X5.6Y-2.5
X5.61Y-3.84
X6.1Y-2.5
X6.11Y-3.84
X6.2Y-2.5
X6.21Y-3.84
X6.7Y-2.5
X6.71Y-3.84
X6.8Y-2.5
X6.81Y-3.84
X7.3Y-2.5
X7.31Y-3.84
X7.4Y-2.5
X7.41Y-3.84
X7.9Y-2.5
X7.91Y-3.84
X8.0Y-2.5
X8.01Y-3.84
T3
X5.14Y-5.3
X5.14Y-5.3984
X5.14Y-5.4969
X5.14Y-5.5953
X5.14Y-5.6937
X5.4031Y-6.175
X5.5016Y-6.175
X5.6Y-6.175
X5.6531Y-3.4382
X5.6631Y-4.7782
X5.7516Y-3.4382
X5.7616Y-4.7782
X5.85Y-3.4382
X5.86Y-4.7782
X5.9484Y-3.4382
X5.9584Y-4.7782
X6.0469Y-3.4382
X6.0569Y-4.7782
X6.59Y-5.3019
X6.59Y-5.4003
X6.59Y-5.4987
X6.59Y-5.5971
X6.59Y-5.6956
T4
X5.9108Y-6.175
X6.0092Y-6.175
X6.3108Y-6.175
X6.4092Y-6.175
T0
M30
