%TF.GenerationSoftware,KiCad,Pcbnew,7.0.9*%
%TF.CreationDate,2025-02-13T17:11:31+01:00*%
%TF.ProjectId,bike lights,62696b65-206c-4696-9768-74732e6b6963,rev?*%
%TF.SameCoordinates,Original*%
%TF.FileFunction,Legend,Top*%
%TF.FilePolarity,Positive*%
%FSLAX46Y46*%
G04 Gerber Fmt 4.6, Leading zero omitted, Abs format (unit mm)*
G04 Created by KiCad (PCBNEW 7.0.9) date 2025-02-13 17:11:31*
%MOMM*%
%LPD*%
G01*
G04 APERTURE LIST*
%ADD10C,0.150000*%
%ADD11C,0.120000*%
G04 APERTURE END LIST*
D10*
X171759523Y-59899580D02*
X171711904Y-59947200D01*
X171711904Y-59947200D02*
X171569047Y-59994819D01*
X171569047Y-59994819D02*
X171473809Y-59994819D01*
X171473809Y-59994819D02*
X171330952Y-59947200D01*
X171330952Y-59947200D02*
X171235714Y-59851961D01*
X171235714Y-59851961D02*
X171188095Y-59756723D01*
X171188095Y-59756723D02*
X171140476Y-59566247D01*
X171140476Y-59566247D02*
X171140476Y-59423390D01*
X171140476Y-59423390D02*
X171188095Y-59232914D01*
X171188095Y-59232914D02*
X171235714Y-59137676D01*
X171235714Y-59137676D02*
X171330952Y-59042438D01*
X171330952Y-59042438D02*
X171473809Y-58994819D01*
X171473809Y-58994819D02*
X171569047Y-58994819D01*
X171569047Y-58994819D02*
X171711904Y-59042438D01*
X171711904Y-59042438D02*
X171759523Y-59090057D01*
X142518325Y-147853581D02*
X142470706Y-147901201D01*
X142470706Y-147901201D02*
X142327849Y-147948820D01*
X142327849Y-147948820D02*
X142232611Y-147948820D01*
X142232611Y-147948820D02*
X142089754Y-147901201D01*
X142089754Y-147901201D02*
X141994516Y-147805962D01*
X141994516Y-147805962D02*
X141946897Y-147710724D01*
X141946897Y-147710724D02*
X141899278Y-147520248D01*
X141899278Y-147520248D02*
X141899278Y-147377391D01*
X141899278Y-147377391D02*
X141946897Y-147186915D01*
X141946897Y-147186915D02*
X141994516Y-147091677D01*
X141994516Y-147091677D02*
X142089754Y-146996439D01*
X142089754Y-146996439D02*
X142232611Y-146948820D01*
X142232611Y-146948820D02*
X142327849Y-146948820D01*
X142327849Y-146948820D02*
X142470706Y-146996439D01*
X142470706Y-146996439D02*
X142518325Y-147044058D01*
X143375468Y-147282153D02*
X143375468Y-147948820D01*
X143137373Y-146901201D02*
X142899278Y-147615486D01*
X142899278Y-147615486D02*
X143518325Y-147615486D01*
X156297333Y-103080819D02*
X155964000Y-102604628D01*
X155725905Y-103080819D02*
X155725905Y-102080819D01*
X155725905Y-102080819D02*
X156106857Y-102080819D01*
X156106857Y-102080819D02*
X156202095Y-102128438D01*
X156202095Y-102128438D02*
X156249714Y-102176057D01*
X156249714Y-102176057D02*
X156297333Y-102271295D01*
X156297333Y-102271295D02*
X156297333Y-102414152D01*
X156297333Y-102414152D02*
X156249714Y-102509390D01*
X156249714Y-102509390D02*
X156202095Y-102557009D01*
X156202095Y-102557009D02*
X156106857Y-102604628D01*
X156106857Y-102604628D02*
X155725905Y-102604628D01*
X157154476Y-102414152D02*
X157154476Y-103080819D01*
X156916381Y-102033200D02*
X156678286Y-102747485D01*
X156678286Y-102747485D02*
X157297333Y-102747485D01*
X125817333Y-103080819D02*
X125484000Y-102604628D01*
X125245905Y-103080819D02*
X125245905Y-102080819D01*
X125245905Y-102080819D02*
X125626857Y-102080819D01*
X125626857Y-102080819D02*
X125722095Y-102128438D01*
X125722095Y-102128438D02*
X125769714Y-102176057D01*
X125769714Y-102176057D02*
X125817333Y-102271295D01*
X125817333Y-102271295D02*
X125817333Y-102414152D01*
X125817333Y-102414152D02*
X125769714Y-102509390D01*
X125769714Y-102509390D02*
X125722095Y-102557009D01*
X125722095Y-102557009D02*
X125626857Y-102604628D01*
X125626857Y-102604628D02*
X125245905Y-102604628D01*
X126674476Y-102080819D02*
X126484000Y-102080819D01*
X126484000Y-102080819D02*
X126388762Y-102128438D01*
X126388762Y-102128438D02*
X126341143Y-102176057D01*
X126341143Y-102176057D02*
X126245905Y-102318914D01*
X126245905Y-102318914D02*
X126198286Y-102509390D01*
X126198286Y-102509390D02*
X126198286Y-102890342D01*
X126198286Y-102890342D02*
X126245905Y-102985580D01*
X126245905Y-102985580D02*
X126293524Y-103033200D01*
X126293524Y-103033200D02*
X126388762Y-103080819D01*
X126388762Y-103080819D02*
X126579238Y-103080819D01*
X126579238Y-103080819D02*
X126674476Y-103033200D01*
X126674476Y-103033200D02*
X126722095Y-102985580D01*
X126722095Y-102985580D02*
X126769714Y-102890342D01*
X126769714Y-102890342D02*
X126769714Y-102652247D01*
X126769714Y-102652247D02*
X126722095Y-102557009D01*
X126722095Y-102557009D02*
X126674476Y-102509390D01*
X126674476Y-102509390D02*
X126579238Y-102461771D01*
X126579238Y-102461771D02*
X126388762Y-102461771D01*
X126388762Y-102461771D02*
X126293524Y-102509390D01*
X126293524Y-102509390D02*
X126245905Y-102557009D01*
X126245905Y-102557009D02*
X126198286Y-102652247D01*
X125872857Y-59471009D02*
X125539524Y-59471009D01*
X125539524Y-59994819D02*
X125539524Y-58994819D01*
X125539524Y-58994819D02*
X126015714Y-58994819D01*
X187015428Y-93507009D02*
X187158285Y-93554628D01*
X187158285Y-93554628D02*
X187205904Y-93602247D01*
X187205904Y-93602247D02*
X187253523Y-93697485D01*
X187253523Y-93697485D02*
X187253523Y-93840342D01*
X187253523Y-93840342D02*
X187205904Y-93935580D01*
X187205904Y-93935580D02*
X187158285Y-93983200D01*
X187158285Y-93983200D02*
X187063047Y-94030819D01*
X187063047Y-94030819D02*
X186682095Y-94030819D01*
X186682095Y-94030819D02*
X186682095Y-93030819D01*
X186682095Y-93030819D02*
X187015428Y-93030819D01*
X187015428Y-93030819D02*
X187110666Y-93078438D01*
X187110666Y-93078438D02*
X187158285Y-93126057D01*
X187158285Y-93126057D02*
X187205904Y-93221295D01*
X187205904Y-93221295D02*
X187205904Y-93316533D01*
X187205904Y-93316533D02*
X187158285Y-93411771D01*
X187158285Y-93411771D02*
X187110666Y-93459390D01*
X187110666Y-93459390D02*
X187015428Y-93507009D01*
X187015428Y-93507009D02*
X186682095Y-93507009D01*
X140803333Y-69044819D02*
X140470000Y-68568628D01*
X140231905Y-69044819D02*
X140231905Y-68044819D01*
X140231905Y-68044819D02*
X140612857Y-68044819D01*
X140612857Y-68044819D02*
X140708095Y-68092438D01*
X140708095Y-68092438D02*
X140755714Y-68140057D01*
X140755714Y-68140057D02*
X140803333Y-68235295D01*
X140803333Y-68235295D02*
X140803333Y-68378152D01*
X140803333Y-68378152D02*
X140755714Y-68473390D01*
X140755714Y-68473390D02*
X140708095Y-68521009D01*
X140708095Y-68521009D02*
X140612857Y-68568628D01*
X140612857Y-68568628D02*
X140231905Y-68568628D01*
X141708095Y-68044819D02*
X141231905Y-68044819D01*
X141231905Y-68044819D02*
X141184286Y-68521009D01*
X141184286Y-68521009D02*
X141231905Y-68473390D01*
X141231905Y-68473390D02*
X141327143Y-68425771D01*
X141327143Y-68425771D02*
X141565238Y-68425771D01*
X141565238Y-68425771D02*
X141660476Y-68473390D01*
X141660476Y-68473390D02*
X141708095Y-68521009D01*
X141708095Y-68521009D02*
X141755714Y-68616247D01*
X141755714Y-68616247D02*
X141755714Y-68854342D01*
X141755714Y-68854342D02*
X141708095Y-68949580D01*
X141708095Y-68949580D02*
X141660476Y-68997200D01*
X141660476Y-68997200D02*
X141565238Y-69044819D01*
X141565238Y-69044819D02*
X141327143Y-69044819D01*
X141327143Y-69044819D02*
X141231905Y-68997200D01*
X141231905Y-68997200D02*
X141184286Y-68949580D01*
X201691905Y-59709104D02*
X202168095Y-59709104D01*
X201596667Y-59994819D02*
X201930000Y-58994819D01*
X201930000Y-58994819D02*
X202263333Y-59994819D01*
X201945905Y-93745104D02*
X202422095Y-93745104D01*
X201850667Y-94030819D02*
X202184000Y-93030819D01*
X202184000Y-93030819D02*
X202517333Y-94030819D01*
X141057333Y-103080819D02*
X140724000Y-102604628D01*
X140485905Y-103080819D02*
X140485905Y-102080819D01*
X140485905Y-102080819D02*
X140866857Y-102080819D01*
X140866857Y-102080819D02*
X140962095Y-102128438D01*
X140962095Y-102128438D02*
X141009714Y-102176057D01*
X141009714Y-102176057D02*
X141057333Y-102271295D01*
X141057333Y-102271295D02*
X141057333Y-102414152D01*
X141057333Y-102414152D02*
X141009714Y-102509390D01*
X141009714Y-102509390D02*
X140962095Y-102557009D01*
X140962095Y-102557009D02*
X140866857Y-102604628D01*
X140866857Y-102604628D02*
X140485905Y-102604628D01*
X141962095Y-102080819D02*
X141485905Y-102080819D01*
X141485905Y-102080819D02*
X141438286Y-102557009D01*
X141438286Y-102557009D02*
X141485905Y-102509390D01*
X141485905Y-102509390D02*
X141581143Y-102461771D01*
X141581143Y-102461771D02*
X141819238Y-102461771D01*
X141819238Y-102461771D02*
X141914476Y-102509390D01*
X141914476Y-102509390D02*
X141962095Y-102557009D01*
X141962095Y-102557009D02*
X142009714Y-102652247D01*
X142009714Y-102652247D02*
X142009714Y-102890342D01*
X142009714Y-102890342D02*
X141962095Y-102985580D01*
X141962095Y-102985580D02*
X141914476Y-103033200D01*
X141914476Y-103033200D02*
X141819238Y-103080819D01*
X141819238Y-103080819D02*
X141581143Y-103080819D01*
X141581143Y-103080819D02*
X141485905Y-103033200D01*
X141485905Y-103033200D02*
X141438286Y-102985580D01*
X149185333Y-147853581D02*
X149137714Y-147901201D01*
X149137714Y-147901201D02*
X148994857Y-147948820D01*
X148994857Y-147948820D02*
X148899619Y-147948820D01*
X148899619Y-147948820D02*
X148756762Y-147901201D01*
X148756762Y-147901201D02*
X148661524Y-147805962D01*
X148661524Y-147805962D02*
X148613905Y-147710724D01*
X148613905Y-147710724D02*
X148566286Y-147520248D01*
X148566286Y-147520248D02*
X148566286Y-147377391D01*
X148566286Y-147377391D02*
X148613905Y-147186915D01*
X148613905Y-147186915D02*
X148661524Y-147091677D01*
X148661524Y-147091677D02*
X148756762Y-146996439D01*
X148756762Y-146996439D02*
X148899619Y-146948820D01*
X148899619Y-146948820D02*
X148994857Y-146948820D01*
X148994857Y-146948820D02*
X149137714Y-146996439D01*
X149137714Y-146996439D02*
X149185333Y-147044058D01*
X149518667Y-146948820D02*
X150137714Y-146948820D01*
X150137714Y-146948820D02*
X149804381Y-147329772D01*
X149804381Y-147329772D02*
X149947238Y-147329772D01*
X149947238Y-147329772D02*
X150042476Y-147377391D01*
X150042476Y-147377391D02*
X150090095Y-147425010D01*
X150090095Y-147425010D02*
X150137714Y-147520248D01*
X150137714Y-147520248D02*
X150137714Y-147758343D01*
X150137714Y-147758343D02*
X150090095Y-147853581D01*
X150090095Y-147853581D02*
X150042476Y-147901201D01*
X150042476Y-147901201D02*
X149947238Y-147948820D01*
X149947238Y-147948820D02*
X149661524Y-147948820D01*
X149661524Y-147948820D02*
X149566286Y-147901201D01*
X149566286Y-147901201D02*
X149518667Y-147853581D01*
X95083333Y-69044819D02*
X94750000Y-68568628D01*
X94511905Y-69044819D02*
X94511905Y-68044819D01*
X94511905Y-68044819D02*
X94892857Y-68044819D01*
X94892857Y-68044819D02*
X94988095Y-68092438D01*
X94988095Y-68092438D02*
X95035714Y-68140057D01*
X95035714Y-68140057D02*
X95083333Y-68235295D01*
X95083333Y-68235295D02*
X95083333Y-68378152D01*
X95083333Y-68378152D02*
X95035714Y-68473390D01*
X95035714Y-68473390D02*
X94988095Y-68521009D01*
X94988095Y-68521009D02*
X94892857Y-68568628D01*
X94892857Y-68568628D02*
X94511905Y-68568628D01*
X95654762Y-68473390D02*
X95559524Y-68425771D01*
X95559524Y-68425771D02*
X95511905Y-68378152D01*
X95511905Y-68378152D02*
X95464286Y-68282914D01*
X95464286Y-68282914D02*
X95464286Y-68235295D01*
X95464286Y-68235295D02*
X95511905Y-68140057D01*
X95511905Y-68140057D02*
X95559524Y-68092438D01*
X95559524Y-68092438D02*
X95654762Y-68044819D01*
X95654762Y-68044819D02*
X95845238Y-68044819D01*
X95845238Y-68044819D02*
X95940476Y-68092438D01*
X95940476Y-68092438D02*
X95988095Y-68140057D01*
X95988095Y-68140057D02*
X96035714Y-68235295D01*
X96035714Y-68235295D02*
X96035714Y-68282914D01*
X96035714Y-68282914D02*
X95988095Y-68378152D01*
X95988095Y-68378152D02*
X95940476Y-68425771D01*
X95940476Y-68425771D02*
X95845238Y-68473390D01*
X95845238Y-68473390D02*
X95654762Y-68473390D01*
X95654762Y-68473390D02*
X95559524Y-68521009D01*
X95559524Y-68521009D02*
X95511905Y-68568628D01*
X95511905Y-68568628D02*
X95464286Y-68663866D01*
X95464286Y-68663866D02*
X95464286Y-68854342D01*
X95464286Y-68854342D02*
X95511905Y-68949580D01*
X95511905Y-68949580D02*
X95559524Y-68997200D01*
X95559524Y-68997200D02*
X95654762Y-69044819D01*
X95654762Y-69044819D02*
X95845238Y-69044819D01*
X95845238Y-69044819D02*
X95940476Y-68997200D01*
X95940476Y-68997200D02*
X95988095Y-68949580D01*
X95988095Y-68949580D02*
X96035714Y-68854342D01*
X96035714Y-68854342D02*
X96035714Y-68663866D01*
X96035714Y-68663866D02*
X95988095Y-68568628D01*
X95988095Y-68568628D02*
X95940476Y-68521009D01*
X95940476Y-68521009D02*
X95845238Y-68473390D01*
X110577333Y-103080819D02*
X110244000Y-102604628D01*
X110005905Y-103080819D02*
X110005905Y-102080819D01*
X110005905Y-102080819D02*
X110386857Y-102080819D01*
X110386857Y-102080819D02*
X110482095Y-102128438D01*
X110482095Y-102128438D02*
X110529714Y-102176057D01*
X110529714Y-102176057D02*
X110577333Y-102271295D01*
X110577333Y-102271295D02*
X110577333Y-102414152D01*
X110577333Y-102414152D02*
X110529714Y-102509390D01*
X110529714Y-102509390D02*
X110482095Y-102557009D01*
X110482095Y-102557009D02*
X110386857Y-102604628D01*
X110386857Y-102604628D02*
X110005905Y-102604628D01*
X110910667Y-102080819D02*
X111577333Y-102080819D01*
X111577333Y-102080819D02*
X111148762Y-103080819D01*
X94964286Y-59994819D02*
X94964286Y-58994819D01*
X94964286Y-59471009D02*
X95535714Y-59471009D01*
X95535714Y-59994819D02*
X95535714Y-58994819D01*
X202017333Y-103080819D02*
X201684000Y-102604628D01*
X201445905Y-103080819D02*
X201445905Y-102080819D01*
X201445905Y-102080819D02*
X201826857Y-102080819D01*
X201826857Y-102080819D02*
X201922095Y-102128438D01*
X201922095Y-102128438D02*
X201969714Y-102176057D01*
X201969714Y-102176057D02*
X202017333Y-102271295D01*
X202017333Y-102271295D02*
X202017333Y-102414152D01*
X202017333Y-102414152D02*
X201969714Y-102509390D01*
X201969714Y-102509390D02*
X201922095Y-102557009D01*
X201922095Y-102557009D02*
X201826857Y-102604628D01*
X201826857Y-102604628D02*
X201445905Y-102604628D01*
X202969714Y-103080819D02*
X202398286Y-103080819D01*
X202684000Y-103080819D02*
X202684000Y-102080819D01*
X202684000Y-102080819D02*
X202588762Y-102223676D01*
X202588762Y-102223676D02*
X202493524Y-102318914D01*
X202493524Y-102318914D02*
X202398286Y-102366533D01*
X126126857Y-93507009D02*
X125793524Y-93507009D01*
X125793524Y-94030819D02*
X125793524Y-93030819D01*
X125793524Y-93030819D02*
X126269714Y-93030819D01*
X186523333Y-69044819D02*
X186190000Y-68568628D01*
X185951905Y-69044819D02*
X185951905Y-68044819D01*
X185951905Y-68044819D02*
X186332857Y-68044819D01*
X186332857Y-68044819D02*
X186428095Y-68092438D01*
X186428095Y-68092438D02*
X186475714Y-68140057D01*
X186475714Y-68140057D02*
X186523333Y-68235295D01*
X186523333Y-68235295D02*
X186523333Y-68378152D01*
X186523333Y-68378152D02*
X186475714Y-68473390D01*
X186475714Y-68473390D02*
X186428095Y-68521009D01*
X186428095Y-68521009D02*
X186332857Y-68568628D01*
X186332857Y-68568628D02*
X185951905Y-68568628D01*
X186904286Y-68140057D02*
X186951905Y-68092438D01*
X186951905Y-68092438D02*
X187047143Y-68044819D01*
X187047143Y-68044819D02*
X187285238Y-68044819D01*
X187285238Y-68044819D02*
X187380476Y-68092438D01*
X187380476Y-68092438D02*
X187428095Y-68140057D01*
X187428095Y-68140057D02*
X187475714Y-68235295D01*
X187475714Y-68235295D02*
X187475714Y-68330533D01*
X187475714Y-68330533D02*
X187428095Y-68473390D01*
X187428095Y-68473390D02*
X186856667Y-69044819D01*
X186856667Y-69044819D02*
X187475714Y-69044819D01*
X110323333Y-69044819D02*
X109990000Y-68568628D01*
X109751905Y-69044819D02*
X109751905Y-68044819D01*
X109751905Y-68044819D02*
X110132857Y-68044819D01*
X110132857Y-68044819D02*
X110228095Y-68092438D01*
X110228095Y-68092438D02*
X110275714Y-68140057D01*
X110275714Y-68140057D02*
X110323333Y-68235295D01*
X110323333Y-68235295D02*
X110323333Y-68378152D01*
X110323333Y-68378152D02*
X110275714Y-68473390D01*
X110275714Y-68473390D02*
X110228095Y-68521009D01*
X110228095Y-68521009D02*
X110132857Y-68568628D01*
X110132857Y-68568628D02*
X109751905Y-68568628D01*
X110656667Y-68044819D02*
X111323333Y-68044819D01*
X111323333Y-68044819D02*
X110894762Y-69044819D01*
X150050667Y-154453200D02*
X150193524Y-154500819D01*
X150193524Y-154500819D02*
X150431619Y-154500819D01*
X150431619Y-154500819D02*
X150526857Y-154453200D01*
X150526857Y-154453200D02*
X150574476Y-154405580D01*
X150574476Y-154405580D02*
X150622095Y-154310342D01*
X150622095Y-154310342D02*
X150622095Y-154215104D01*
X150622095Y-154215104D02*
X150574476Y-154119866D01*
X150574476Y-154119866D02*
X150526857Y-154072247D01*
X150526857Y-154072247D02*
X150431619Y-154024628D01*
X150431619Y-154024628D02*
X150241143Y-153977009D01*
X150241143Y-153977009D02*
X150145905Y-153929390D01*
X150145905Y-153929390D02*
X150098286Y-153881771D01*
X150098286Y-153881771D02*
X150050667Y-153786533D01*
X150050667Y-153786533D02*
X150050667Y-153691295D01*
X150050667Y-153691295D02*
X150098286Y-153596057D01*
X150098286Y-153596057D02*
X150145905Y-153548438D01*
X150145905Y-153548438D02*
X150241143Y-153500819D01*
X150241143Y-153500819D02*
X150479238Y-153500819D01*
X150479238Y-153500819D02*
X150622095Y-153548438D01*
X150955429Y-153500819D02*
X151193524Y-154500819D01*
X151193524Y-154500819D02*
X151384000Y-153786533D01*
X151384000Y-153786533D02*
X151574476Y-154500819D01*
X151574476Y-154500819D02*
X151812572Y-153500819D01*
X152717333Y-154500819D02*
X152145905Y-154500819D01*
X152431619Y-154500819D02*
X152431619Y-153500819D01*
X152431619Y-153500819D02*
X152336381Y-153643676D01*
X152336381Y-153643676D02*
X152241143Y-153738914D01*
X152241143Y-153738914D02*
X152145905Y-153786533D01*
X172013523Y-93935580D02*
X171965904Y-93983200D01*
X171965904Y-93983200D02*
X171823047Y-94030819D01*
X171823047Y-94030819D02*
X171727809Y-94030819D01*
X171727809Y-94030819D02*
X171584952Y-93983200D01*
X171584952Y-93983200D02*
X171489714Y-93887961D01*
X171489714Y-93887961D02*
X171442095Y-93792723D01*
X171442095Y-93792723D02*
X171394476Y-93602247D01*
X171394476Y-93602247D02*
X171394476Y-93459390D01*
X171394476Y-93459390D02*
X171442095Y-93268914D01*
X171442095Y-93268914D02*
X171489714Y-93173676D01*
X171489714Y-93173676D02*
X171584952Y-93078438D01*
X171584952Y-93078438D02*
X171727809Y-93030819D01*
X171727809Y-93030819D02*
X171823047Y-93030819D01*
X171823047Y-93030819D02*
X171965904Y-93078438D01*
X171965904Y-93078438D02*
X172013523Y-93126057D01*
X171537333Y-103080819D02*
X171204000Y-102604628D01*
X170965905Y-103080819D02*
X170965905Y-102080819D01*
X170965905Y-102080819D02*
X171346857Y-102080819D01*
X171346857Y-102080819D02*
X171442095Y-102128438D01*
X171442095Y-102128438D02*
X171489714Y-102176057D01*
X171489714Y-102176057D02*
X171537333Y-102271295D01*
X171537333Y-102271295D02*
X171537333Y-102414152D01*
X171537333Y-102414152D02*
X171489714Y-102509390D01*
X171489714Y-102509390D02*
X171442095Y-102557009D01*
X171442095Y-102557009D02*
X171346857Y-102604628D01*
X171346857Y-102604628D02*
X170965905Y-102604628D01*
X171870667Y-102080819D02*
X172489714Y-102080819D01*
X172489714Y-102080819D02*
X172156381Y-102461771D01*
X172156381Y-102461771D02*
X172299238Y-102461771D01*
X172299238Y-102461771D02*
X172394476Y-102509390D01*
X172394476Y-102509390D02*
X172442095Y-102557009D01*
X172442095Y-102557009D02*
X172489714Y-102652247D01*
X172489714Y-102652247D02*
X172489714Y-102890342D01*
X172489714Y-102890342D02*
X172442095Y-102985580D01*
X172442095Y-102985580D02*
X172394476Y-103033200D01*
X172394476Y-103033200D02*
X172299238Y-103080819D01*
X172299238Y-103080819D02*
X172013524Y-103080819D01*
X172013524Y-103080819D02*
X171918286Y-103033200D01*
X171918286Y-103033200D02*
X171870667Y-102985580D01*
X143960143Y-137016819D02*
X143960143Y-136016819D01*
X143960143Y-136016819D02*
X144293476Y-136731104D01*
X144293476Y-136731104D02*
X144626809Y-136016819D01*
X144626809Y-136016819D02*
X144626809Y-137016819D01*
X145055381Y-136969200D02*
X145198238Y-137016819D01*
X145198238Y-137016819D02*
X145436333Y-137016819D01*
X145436333Y-137016819D02*
X145531571Y-136969200D01*
X145531571Y-136969200D02*
X145579190Y-136921580D01*
X145579190Y-136921580D02*
X145626809Y-136826342D01*
X145626809Y-136826342D02*
X145626809Y-136731104D01*
X145626809Y-136731104D02*
X145579190Y-136635866D01*
X145579190Y-136635866D02*
X145531571Y-136588247D01*
X145531571Y-136588247D02*
X145436333Y-136540628D01*
X145436333Y-136540628D02*
X145245857Y-136493009D01*
X145245857Y-136493009D02*
X145150619Y-136445390D01*
X145150619Y-136445390D02*
X145103000Y-136397771D01*
X145103000Y-136397771D02*
X145055381Y-136302533D01*
X145055381Y-136302533D02*
X145055381Y-136207295D01*
X145055381Y-136207295D02*
X145103000Y-136112057D01*
X145103000Y-136112057D02*
X145150619Y-136064438D01*
X145150619Y-136064438D02*
X145245857Y-136016819D01*
X145245857Y-136016819D02*
X145483952Y-136016819D01*
X145483952Y-136016819D02*
X145626809Y-136064438D01*
X146055381Y-137016819D02*
X146055381Y-136016819D01*
X146055381Y-136016819D02*
X146436333Y-136016819D01*
X146436333Y-136016819D02*
X146531571Y-136064438D01*
X146531571Y-136064438D02*
X146579190Y-136112057D01*
X146579190Y-136112057D02*
X146626809Y-136207295D01*
X146626809Y-136207295D02*
X146626809Y-136350152D01*
X146626809Y-136350152D02*
X146579190Y-136445390D01*
X146579190Y-136445390D02*
X146531571Y-136493009D01*
X146531571Y-136493009D02*
X146436333Y-136540628D01*
X146436333Y-136540628D02*
X146055381Y-136540628D01*
X147483952Y-136350152D02*
X147483952Y-137016819D01*
X147245857Y-135969200D02*
X147007762Y-136683485D01*
X147007762Y-136683485D02*
X147626809Y-136683485D01*
X147912524Y-136016819D02*
X148531571Y-136016819D01*
X148531571Y-136016819D02*
X148198238Y-136397771D01*
X148198238Y-136397771D02*
X148341095Y-136397771D01*
X148341095Y-136397771D02*
X148436333Y-136445390D01*
X148436333Y-136445390D02*
X148483952Y-136493009D01*
X148483952Y-136493009D02*
X148531571Y-136588247D01*
X148531571Y-136588247D02*
X148531571Y-136826342D01*
X148531571Y-136826342D02*
X148483952Y-136921580D01*
X148483952Y-136921580D02*
X148436333Y-136969200D01*
X148436333Y-136969200D02*
X148341095Y-137016819D01*
X148341095Y-137016819D02*
X148055381Y-137016819D01*
X148055381Y-137016819D02*
X147960143Y-136969200D01*
X147960143Y-136969200D02*
X147912524Y-136921580D01*
X149150619Y-136016819D02*
X149245857Y-136016819D01*
X149245857Y-136016819D02*
X149341095Y-136064438D01*
X149341095Y-136064438D02*
X149388714Y-136112057D01*
X149388714Y-136112057D02*
X149436333Y-136207295D01*
X149436333Y-136207295D02*
X149483952Y-136397771D01*
X149483952Y-136397771D02*
X149483952Y-136635866D01*
X149483952Y-136635866D02*
X149436333Y-136826342D01*
X149436333Y-136826342D02*
X149388714Y-136921580D01*
X149388714Y-136921580D02*
X149341095Y-136969200D01*
X149341095Y-136969200D02*
X149245857Y-137016819D01*
X149245857Y-137016819D02*
X149150619Y-137016819D01*
X149150619Y-137016819D02*
X149055381Y-136969200D01*
X149055381Y-136969200D02*
X149007762Y-136921580D01*
X149007762Y-136921580D02*
X148960143Y-136826342D01*
X148960143Y-136826342D02*
X148912524Y-136635866D01*
X148912524Y-136635866D02*
X148912524Y-136397771D01*
X148912524Y-136397771D02*
X148960143Y-136207295D01*
X148960143Y-136207295D02*
X149007762Y-136112057D01*
X149007762Y-136112057D02*
X149055381Y-136064438D01*
X149055381Y-136064438D02*
X149150619Y-136016819D01*
X150436333Y-136064438D02*
X150341095Y-136016819D01*
X150341095Y-136016819D02*
X150198238Y-136016819D01*
X150198238Y-136016819D02*
X150055381Y-136064438D01*
X150055381Y-136064438D02*
X149960143Y-136159676D01*
X149960143Y-136159676D02*
X149912524Y-136254914D01*
X149912524Y-136254914D02*
X149864905Y-136445390D01*
X149864905Y-136445390D02*
X149864905Y-136588247D01*
X149864905Y-136588247D02*
X149912524Y-136778723D01*
X149912524Y-136778723D02*
X149960143Y-136873961D01*
X149960143Y-136873961D02*
X150055381Y-136969200D01*
X150055381Y-136969200D02*
X150198238Y-137016819D01*
X150198238Y-137016819D02*
X150293476Y-137016819D01*
X150293476Y-137016819D02*
X150436333Y-136969200D01*
X150436333Y-136969200D02*
X150483952Y-136921580D01*
X150483952Y-136921580D02*
X150483952Y-136588247D01*
X150483952Y-136588247D02*
X150293476Y-136588247D01*
X150864905Y-136112057D02*
X150912524Y-136064438D01*
X150912524Y-136064438D02*
X151007762Y-136016819D01*
X151007762Y-136016819D02*
X151245857Y-136016819D01*
X151245857Y-136016819D02*
X151341095Y-136064438D01*
X151341095Y-136064438D02*
X151388714Y-136112057D01*
X151388714Y-136112057D02*
X151436333Y-136207295D01*
X151436333Y-136207295D02*
X151436333Y-136302533D01*
X151436333Y-136302533D02*
X151388714Y-136445390D01*
X151388714Y-136445390D02*
X150817286Y-137016819D01*
X150817286Y-137016819D02*
X151436333Y-137016819D01*
X152341095Y-136016819D02*
X151864905Y-136016819D01*
X151864905Y-136016819D02*
X151817286Y-136493009D01*
X151817286Y-136493009D02*
X151864905Y-136445390D01*
X151864905Y-136445390D02*
X151960143Y-136397771D01*
X151960143Y-136397771D02*
X152198238Y-136397771D01*
X152198238Y-136397771D02*
X152293476Y-136445390D01*
X152293476Y-136445390D02*
X152341095Y-136493009D01*
X152341095Y-136493009D02*
X152388714Y-136588247D01*
X152388714Y-136588247D02*
X152388714Y-136826342D01*
X152388714Y-136826342D02*
X152341095Y-136921580D01*
X152341095Y-136921580D02*
X152293476Y-136969200D01*
X152293476Y-136969200D02*
X152198238Y-137016819D01*
X152198238Y-137016819D02*
X151960143Y-137016819D01*
X151960143Y-137016819D02*
X151864905Y-136969200D01*
X151864905Y-136969200D02*
X151817286Y-136921580D01*
X153293476Y-136016819D02*
X152817286Y-136016819D01*
X152817286Y-136016819D02*
X152769667Y-136493009D01*
X152769667Y-136493009D02*
X152817286Y-136445390D01*
X152817286Y-136445390D02*
X152912524Y-136397771D01*
X152912524Y-136397771D02*
X153150619Y-136397771D01*
X153150619Y-136397771D02*
X153245857Y-136445390D01*
X153245857Y-136445390D02*
X153293476Y-136493009D01*
X153293476Y-136493009D02*
X153341095Y-136588247D01*
X153341095Y-136588247D02*
X153341095Y-136826342D01*
X153341095Y-136826342D02*
X153293476Y-136921580D01*
X153293476Y-136921580D02*
X153245857Y-136969200D01*
X153245857Y-136969200D02*
X153150619Y-137016819D01*
X153150619Y-137016819D02*
X152912524Y-137016819D01*
X152912524Y-137016819D02*
X152817286Y-136969200D01*
X152817286Y-136969200D02*
X152769667Y-136921580D01*
X153674429Y-136016819D02*
X154293476Y-136016819D01*
X154293476Y-136016819D02*
X153960143Y-136397771D01*
X153960143Y-136397771D02*
X154103000Y-136397771D01*
X154103000Y-136397771D02*
X154198238Y-136445390D01*
X154198238Y-136445390D02*
X154245857Y-136493009D01*
X154245857Y-136493009D02*
X154293476Y-136588247D01*
X154293476Y-136588247D02*
X154293476Y-136826342D01*
X154293476Y-136826342D02*
X154245857Y-136921580D01*
X154245857Y-136921580D02*
X154198238Y-136969200D01*
X154198238Y-136969200D02*
X154103000Y-137016819D01*
X154103000Y-137016819D02*
X153817286Y-137016819D01*
X153817286Y-137016819D02*
X153722048Y-136969200D01*
X153722048Y-136969200D02*
X153674429Y-136921580D01*
X171283333Y-69044819D02*
X170950000Y-68568628D01*
X170711905Y-69044819D02*
X170711905Y-68044819D01*
X170711905Y-68044819D02*
X171092857Y-68044819D01*
X171092857Y-68044819D02*
X171188095Y-68092438D01*
X171188095Y-68092438D02*
X171235714Y-68140057D01*
X171235714Y-68140057D02*
X171283333Y-68235295D01*
X171283333Y-68235295D02*
X171283333Y-68378152D01*
X171283333Y-68378152D02*
X171235714Y-68473390D01*
X171235714Y-68473390D02*
X171188095Y-68521009D01*
X171188095Y-68521009D02*
X171092857Y-68568628D01*
X171092857Y-68568628D02*
X170711905Y-68568628D01*
X171616667Y-68044819D02*
X172235714Y-68044819D01*
X172235714Y-68044819D02*
X171902381Y-68425771D01*
X171902381Y-68425771D02*
X172045238Y-68425771D01*
X172045238Y-68425771D02*
X172140476Y-68473390D01*
X172140476Y-68473390D02*
X172188095Y-68521009D01*
X172188095Y-68521009D02*
X172235714Y-68616247D01*
X172235714Y-68616247D02*
X172235714Y-68854342D01*
X172235714Y-68854342D02*
X172188095Y-68949580D01*
X172188095Y-68949580D02*
X172140476Y-68997200D01*
X172140476Y-68997200D02*
X172045238Y-69044819D01*
X172045238Y-69044819D02*
X171759524Y-69044819D01*
X171759524Y-69044819D02*
X171664286Y-68997200D01*
X171664286Y-68997200D02*
X171616667Y-68949580D01*
X138406667Y-154453200D02*
X138549524Y-154500819D01*
X138549524Y-154500819D02*
X138787619Y-154500819D01*
X138787619Y-154500819D02*
X138882857Y-154453200D01*
X138882857Y-154453200D02*
X138930476Y-154405580D01*
X138930476Y-154405580D02*
X138978095Y-154310342D01*
X138978095Y-154310342D02*
X138978095Y-154215104D01*
X138978095Y-154215104D02*
X138930476Y-154119866D01*
X138930476Y-154119866D02*
X138882857Y-154072247D01*
X138882857Y-154072247D02*
X138787619Y-154024628D01*
X138787619Y-154024628D02*
X138597143Y-153977009D01*
X138597143Y-153977009D02*
X138501905Y-153929390D01*
X138501905Y-153929390D02*
X138454286Y-153881771D01*
X138454286Y-153881771D02*
X138406667Y-153786533D01*
X138406667Y-153786533D02*
X138406667Y-153691295D01*
X138406667Y-153691295D02*
X138454286Y-153596057D01*
X138454286Y-153596057D02*
X138501905Y-153548438D01*
X138501905Y-153548438D02*
X138597143Y-153500819D01*
X138597143Y-153500819D02*
X138835238Y-153500819D01*
X138835238Y-153500819D02*
X138978095Y-153548438D01*
X139311429Y-153500819D02*
X139549524Y-154500819D01*
X139549524Y-154500819D02*
X139740000Y-153786533D01*
X139740000Y-153786533D02*
X139930476Y-154500819D01*
X139930476Y-154500819D02*
X140168572Y-153500819D01*
X140501905Y-153596057D02*
X140549524Y-153548438D01*
X140549524Y-153548438D02*
X140644762Y-153500819D01*
X140644762Y-153500819D02*
X140882857Y-153500819D01*
X140882857Y-153500819D02*
X140978095Y-153548438D01*
X140978095Y-153548438D02*
X141025714Y-153596057D01*
X141025714Y-153596057D02*
X141073333Y-153691295D01*
X141073333Y-153691295D02*
X141073333Y-153786533D01*
X141073333Y-153786533D02*
X141025714Y-153929390D01*
X141025714Y-153929390D02*
X140454286Y-154500819D01*
X140454286Y-154500819D02*
X141073333Y-154500819D01*
X144375714Y-111659200D02*
X144518571Y-111706819D01*
X144518571Y-111706819D02*
X144756666Y-111706819D01*
X144756666Y-111706819D02*
X144851904Y-111659200D01*
X144851904Y-111659200D02*
X144899523Y-111611580D01*
X144899523Y-111611580D02*
X144947142Y-111516342D01*
X144947142Y-111516342D02*
X144947142Y-111421104D01*
X144947142Y-111421104D02*
X144899523Y-111325866D01*
X144899523Y-111325866D02*
X144851904Y-111278247D01*
X144851904Y-111278247D02*
X144756666Y-111230628D01*
X144756666Y-111230628D02*
X144566190Y-111183009D01*
X144566190Y-111183009D02*
X144470952Y-111135390D01*
X144470952Y-111135390D02*
X144423333Y-111087771D01*
X144423333Y-111087771D02*
X144375714Y-110992533D01*
X144375714Y-110992533D02*
X144375714Y-110897295D01*
X144375714Y-110897295D02*
X144423333Y-110802057D01*
X144423333Y-110802057D02*
X144470952Y-110754438D01*
X144470952Y-110754438D02*
X144566190Y-110706819D01*
X144566190Y-110706819D02*
X144804285Y-110706819D01*
X144804285Y-110706819D02*
X144947142Y-110754438D01*
X145375714Y-111706819D02*
X145375714Y-110706819D01*
X145375714Y-110706819D02*
X145947142Y-111706819D01*
X145947142Y-111706819D02*
X145947142Y-110706819D01*
X146899523Y-110706819D02*
X146423333Y-110706819D01*
X146423333Y-110706819D02*
X146375714Y-111183009D01*
X146375714Y-111183009D02*
X146423333Y-111135390D01*
X146423333Y-111135390D02*
X146518571Y-111087771D01*
X146518571Y-111087771D02*
X146756666Y-111087771D01*
X146756666Y-111087771D02*
X146851904Y-111135390D01*
X146851904Y-111135390D02*
X146899523Y-111183009D01*
X146899523Y-111183009D02*
X146947142Y-111278247D01*
X146947142Y-111278247D02*
X146947142Y-111516342D01*
X146947142Y-111516342D02*
X146899523Y-111611580D01*
X146899523Y-111611580D02*
X146851904Y-111659200D01*
X146851904Y-111659200D02*
X146756666Y-111706819D01*
X146756666Y-111706819D02*
X146518571Y-111706819D01*
X146518571Y-111706819D02*
X146423333Y-111659200D01*
X146423333Y-111659200D02*
X146375714Y-111611580D01*
X147804285Y-111040152D02*
X147804285Y-111706819D01*
X147566190Y-110659200D02*
X147328095Y-111373485D01*
X147328095Y-111373485D02*
X147947142Y-111373485D01*
X148328095Y-111706819D02*
X148328095Y-110706819D01*
X148328095Y-111183009D02*
X148899523Y-111183009D01*
X148899523Y-111706819D02*
X148899523Y-110706819D01*
X149947142Y-111611580D02*
X149899523Y-111659200D01*
X149899523Y-111659200D02*
X149756666Y-111706819D01*
X149756666Y-111706819D02*
X149661428Y-111706819D01*
X149661428Y-111706819D02*
X149518571Y-111659200D01*
X149518571Y-111659200D02*
X149423333Y-111563961D01*
X149423333Y-111563961D02*
X149375714Y-111468723D01*
X149375714Y-111468723D02*
X149328095Y-111278247D01*
X149328095Y-111278247D02*
X149328095Y-111135390D01*
X149328095Y-111135390D02*
X149375714Y-110944914D01*
X149375714Y-110944914D02*
X149423333Y-110849676D01*
X149423333Y-110849676D02*
X149518571Y-110754438D01*
X149518571Y-110754438D02*
X149661428Y-110706819D01*
X149661428Y-110706819D02*
X149756666Y-110706819D01*
X149756666Y-110706819D02*
X149899523Y-110754438D01*
X149899523Y-110754438D02*
X149947142Y-110802057D01*
X150851904Y-110706819D02*
X150375714Y-110706819D01*
X150375714Y-110706819D02*
X150328095Y-111183009D01*
X150328095Y-111183009D02*
X150375714Y-111135390D01*
X150375714Y-111135390D02*
X150470952Y-111087771D01*
X150470952Y-111087771D02*
X150709047Y-111087771D01*
X150709047Y-111087771D02*
X150804285Y-111135390D01*
X150804285Y-111135390D02*
X150851904Y-111183009D01*
X150851904Y-111183009D02*
X150899523Y-111278247D01*
X150899523Y-111278247D02*
X150899523Y-111516342D01*
X150899523Y-111516342D02*
X150851904Y-111611580D01*
X150851904Y-111611580D02*
X150804285Y-111659200D01*
X150804285Y-111659200D02*
X150709047Y-111706819D01*
X150709047Y-111706819D02*
X150470952Y-111706819D01*
X150470952Y-111706819D02*
X150375714Y-111659200D01*
X150375714Y-111659200D02*
X150328095Y-111611580D01*
X151375714Y-111706819D02*
X151566190Y-111706819D01*
X151566190Y-111706819D02*
X151661428Y-111659200D01*
X151661428Y-111659200D02*
X151709047Y-111611580D01*
X151709047Y-111611580D02*
X151804285Y-111468723D01*
X151804285Y-111468723D02*
X151851904Y-111278247D01*
X151851904Y-111278247D02*
X151851904Y-110897295D01*
X151851904Y-110897295D02*
X151804285Y-110802057D01*
X151804285Y-110802057D02*
X151756666Y-110754438D01*
X151756666Y-110754438D02*
X151661428Y-110706819D01*
X151661428Y-110706819D02*
X151470952Y-110706819D01*
X151470952Y-110706819D02*
X151375714Y-110754438D01*
X151375714Y-110754438D02*
X151328095Y-110802057D01*
X151328095Y-110802057D02*
X151280476Y-110897295D01*
X151280476Y-110897295D02*
X151280476Y-111135390D01*
X151280476Y-111135390D02*
X151328095Y-111230628D01*
X151328095Y-111230628D02*
X151375714Y-111278247D01*
X151375714Y-111278247D02*
X151470952Y-111325866D01*
X151470952Y-111325866D02*
X151661428Y-111325866D01*
X151661428Y-111325866D02*
X151756666Y-111278247D01*
X151756666Y-111278247D02*
X151804285Y-111230628D01*
X151804285Y-111230628D02*
X151851904Y-111135390D01*
X152756666Y-110706819D02*
X152280476Y-110706819D01*
X152280476Y-110706819D02*
X152232857Y-111183009D01*
X152232857Y-111183009D02*
X152280476Y-111135390D01*
X152280476Y-111135390D02*
X152375714Y-111087771D01*
X152375714Y-111087771D02*
X152613809Y-111087771D01*
X152613809Y-111087771D02*
X152709047Y-111135390D01*
X152709047Y-111135390D02*
X152756666Y-111183009D01*
X152756666Y-111183009D02*
X152804285Y-111278247D01*
X152804285Y-111278247D02*
X152804285Y-111516342D01*
X152804285Y-111516342D02*
X152756666Y-111611580D01*
X152756666Y-111611580D02*
X152709047Y-111659200D01*
X152709047Y-111659200D02*
X152613809Y-111706819D01*
X152613809Y-111706819D02*
X152375714Y-111706819D01*
X152375714Y-111706819D02*
X152280476Y-111659200D01*
X152280476Y-111659200D02*
X152232857Y-111611580D01*
X111005904Y-93078438D02*
X110910666Y-93030819D01*
X110910666Y-93030819D02*
X110767809Y-93030819D01*
X110767809Y-93030819D02*
X110624952Y-93078438D01*
X110624952Y-93078438D02*
X110529714Y-93173676D01*
X110529714Y-93173676D02*
X110482095Y-93268914D01*
X110482095Y-93268914D02*
X110434476Y-93459390D01*
X110434476Y-93459390D02*
X110434476Y-93602247D01*
X110434476Y-93602247D02*
X110482095Y-93792723D01*
X110482095Y-93792723D02*
X110529714Y-93887961D01*
X110529714Y-93887961D02*
X110624952Y-93983200D01*
X110624952Y-93983200D02*
X110767809Y-94030819D01*
X110767809Y-94030819D02*
X110863047Y-94030819D01*
X110863047Y-94030819D02*
X111005904Y-93983200D01*
X111005904Y-93983200D02*
X111053523Y-93935580D01*
X111053523Y-93935580D02*
X111053523Y-93602247D01*
X111053523Y-93602247D02*
X110863047Y-93602247D01*
X155281333Y-144890819D02*
X154948000Y-144414628D01*
X154709905Y-144890819D02*
X154709905Y-143890819D01*
X154709905Y-143890819D02*
X155090857Y-143890819D01*
X155090857Y-143890819D02*
X155186095Y-143938438D01*
X155186095Y-143938438D02*
X155233714Y-143986057D01*
X155233714Y-143986057D02*
X155281333Y-144081295D01*
X155281333Y-144081295D02*
X155281333Y-144224152D01*
X155281333Y-144224152D02*
X155233714Y-144319390D01*
X155233714Y-144319390D02*
X155186095Y-144367009D01*
X155186095Y-144367009D02*
X155090857Y-144414628D01*
X155090857Y-144414628D02*
X154709905Y-144414628D01*
X156233714Y-144890819D02*
X155662286Y-144890819D01*
X155948000Y-144890819D02*
X155948000Y-143890819D01*
X155948000Y-143890819D02*
X155852762Y-144033676D01*
X155852762Y-144033676D02*
X155757524Y-144128914D01*
X155757524Y-144128914D02*
X155662286Y-144176533D01*
X95337333Y-103080819D02*
X95004000Y-102604628D01*
X94765905Y-103080819D02*
X94765905Y-102080819D01*
X94765905Y-102080819D02*
X95146857Y-102080819D01*
X95146857Y-102080819D02*
X95242095Y-102128438D01*
X95242095Y-102128438D02*
X95289714Y-102176057D01*
X95289714Y-102176057D02*
X95337333Y-102271295D01*
X95337333Y-102271295D02*
X95337333Y-102414152D01*
X95337333Y-102414152D02*
X95289714Y-102509390D01*
X95289714Y-102509390D02*
X95242095Y-102557009D01*
X95242095Y-102557009D02*
X95146857Y-102604628D01*
X95146857Y-102604628D02*
X94765905Y-102604628D01*
X95908762Y-102509390D02*
X95813524Y-102461771D01*
X95813524Y-102461771D02*
X95765905Y-102414152D01*
X95765905Y-102414152D02*
X95718286Y-102318914D01*
X95718286Y-102318914D02*
X95718286Y-102271295D01*
X95718286Y-102271295D02*
X95765905Y-102176057D01*
X95765905Y-102176057D02*
X95813524Y-102128438D01*
X95813524Y-102128438D02*
X95908762Y-102080819D01*
X95908762Y-102080819D02*
X96099238Y-102080819D01*
X96099238Y-102080819D02*
X96194476Y-102128438D01*
X96194476Y-102128438D02*
X96242095Y-102176057D01*
X96242095Y-102176057D02*
X96289714Y-102271295D01*
X96289714Y-102271295D02*
X96289714Y-102318914D01*
X96289714Y-102318914D02*
X96242095Y-102414152D01*
X96242095Y-102414152D02*
X96194476Y-102461771D01*
X96194476Y-102461771D02*
X96099238Y-102509390D01*
X96099238Y-102509390D02*
X95908762Y-102509390D01*
X95908762Y-102509390D02*
X95813524Y-102557009D01*
X95813524Y-102557009D02*
X95765905Y-102604628D01*
X95765905Y-102604628D02*
X95718286Y-102699866D01*
X95718286Y-102699866D02*
X95718286Y-102890342D01*
X95718286Y-102890342D02*
X95765905Y-102985580D01*
X95765905Y-102985580D02*
X95813524Y-103033200D01*
X95813524Y-103033200D02*
X95908762Y-103080819D01*
X95908762Y-103080819D02*
X96099238Y-103080819D01*
X96099238Y-103080819D02*
X96194476Y-103033200D01*
X96194476Y-103033200D02*
X96242095Y-102985580D01*
X96242095Y-102985580D02*
X96289714Y-102890342D01*
X96289714Y-102890342D02*
X96289714Y-102699866D01*
X96289714Y-102699866D02*
X96242095Y-102604628D01*
X96242095Y-102604628D02*
X96194476Y-102557009D01*
X96194476Y-102557009D02*
X96099238Y-102509390D01*
X201763333Y-69044819D02*
X201430000Y-68568628D01*
X201191905Y-69044819D02*
X201191905Y-68044819D01*
X201191905Y-68044819D02*
X201572857Y-68044819D01*
X201572857Y-68044819D02*
X201668095Y-68092438D01*
X201668095Y-68092438D02*
X201715714Y-68140057D01*
X201715714Y-68140057D02*
X201763333Y-68235295D01*
X201763333Y-68235295D02*
X201763333Y-68378152D01*
X201763333Y-68378152D02*
X201715714Y-68473390D01*
X201715714Y-68473390D02*
X201668095Y-68521009D01*
X201668095Y-68521009D02*
X201572857Y-68568628D01*
X201572857Y-68568628D02*
X201191905Y-68568628D01*
X202715714Y-69044819D02*
X202144286Y-69044819D01*
X202430000Y-69044819D02*
X202430000Y-68044819D01*
X202430000Y-68044819D02*
X202334762Y-68187676D01*
X202334762Y-68187676D02*
X202239524Y-68282914D01*
X202239524Y-68282914D02*
X202144286Y-68330533D01*
X125563333Y-69044819D02*
X125230000Y-68568628D01*
X124991905Y-69044819D02*
X124991905Y-68044819D01*
X124991905Y-68044819D02*
X125372857Y-68044819D01*
X125372857Y-68044819D02*
X125468095Y-68092438D01*
X125468095Y-68092438D02*
X125515714Y-68140057D01*
X125515714Y-68140057D02*
X125563333Y-68235295D01*
X125563333Y-68235295D02*
X125563333Y-68378152D01*
X125563333Y-68378152D02*
X125515714Y-68473390D01*
X125515714Y-68473390D02*
X125468095Y-68521009D01*
X125468095Y-68521009D02*
X125372857Y-68568628D01*
X125372857Y-68568628D02*
X124991905Y-68568628D01*
X126420476Y-68044819D02*
X126230000Y-68044819D01*
X126230000Y-68044819D02*
X126134762Y-68092438D01*
X126134762Y-68092438D02*
X126087143Y-68140057D01*
X126087143Y-68140057D02*
X125991905Y-68282914D01*
X125991905Y-68282914D02*
X125944286Y-68473390D01*
X125944286Y-68473390D02*
X125944286Y-68854342D01*
X125944286Y-68854342D02*
X125991905Y-68949580D01*
X125991905Y-68949580D02*
X126039524Y-68997200D01*
X126039524Y-68997200D02*
X126134762Y-69044819D01*
X126134762Y-69044819D02*
X126325238Y-69044819D01*
X126325238Y-69044819D02*
X126420476Y-68997200D01*
X126420476Y-68997200D02*
X126468095Y-68949580D01*
X126468095Y-68949580D02*
X126515714Y-68854342D01*
X126515714Y-68854342D02*
X126515714Y-68616247D01*
X126515714Y-68616247D02*
X126468095Y-68521009D01*
X126468095Y-68521009D02*
X126420476Y-68473390D01*
X126420476Y-68473390D02*
X126325238Y-68425771D01*
X126325238Y-68425771D02*
X126134762Y-68425771D01*
X126134762Y-68425771D02*
X126039524Y-68473390D01*
X126039524Y-68473390D02*
X125991905Y-68521009D01*
X125991905Y-68521009D02*
X125944286Y-68616247D01*
X156202095Y-94030819D02*
X156202095Y-93030819D01*
X156202095Y-93030819D02*
X156440190Y-93030819D01*
X156440190Y-93030819D02*
X156583047Y-93078438D01*
X156583047Y-93078438D02*
X156678285Y-93173676D01*
X156678285Y-93173676D02*
X156725904Y-93268914D01*
X156725904Y-93268914D02*
X156773523Y-93459390D01*
X156773523Y-93459390D02*
X156773523Y-93602247D01*
X156773523Y-93602247D02*
X156725904Y-93792723D01*
X156725904Y-93792723D02*
X156678285Y-93887961D01*
X156678285Y-93887961D02*
X156583047Y-93983200D01*
X156583047Y-93983200D02*
X156440190Y-94030819D01*
X156440190Y-94030819D02*
X156202095Y-94030819D01*
X110751904Y-59042438D02*
X110656666Y-58994819D01*
X110656666Y-58994819D02*
X110513809Y-58994819D01*
X110513809Y-58994819D02*
X110370952Y-59042438D01*
X110370952Y-59042438D02*
X110275714Y-59137676D01*
X110275714Y-59137676D02*
X110228095Y-59232914D01*
X110228095Y-59232914D02*
X110180476Y-59423390D01*
X110180476Y-59423390D02*
X110180476Y-59566247D01*
X110180476Y-59566247D02*
X110228095Y-59756723D01*
X110228095Y-59756723D02*
X110275714Y-59851961D01*
X110275714Y-59851961D02*
X110370952Y-59947200D01*
X110370952Y-59947200D02*
X110513809Y-59994819D01*
X110513809Y-59994819D02*
X110609047Y-59994819D01*
X110609047Y-59994819D02*
X110751904Y-59947200D01*
X110751904Y-59947200D02*
X110799523Y-59899580D01*
X110799523Y-59899580D02*
X110799523Y-59566247D01*
X110799523Y-59566247D02*
X110609047Y-59566247D01*
X186761428Y-59471009D02*
X186904285Y-59518628D01*
X186904285Y-59518628D02*
X186951904Y-59566247D01*
X186951904Y-59566247D02*
X186999523Y-59661485D01*
X186999523Y-59661485D02*
X186999523Y-59804342D01*
X186999523Y-59804342D02*
X186951904Y-59899580D01*
X186951904Y-59899580D02*
X186904285Y-59947200D01*
X186904285Y-59947200D02*
X186809047Y-59994819D01*
X186809047Y-59994819D02*
X186428095Y-59994819D01*
X186428095Y-59994819D02*
X186428095Y-58994819D01*
X186428095Y-58994819D02*
X186761428Y-58994819D01*
X186761428Y-58994819D02*
X186856666Y-59042438D01*
X186856666Y-59042438D02*
X186904285Y-59090057D01*
X186904285Y-59090057D02*
X186951904Y-59185295D01*
X186951904Y-59185295D02*
X186951904Y-59280533D01*
X186951904Y-59280533D02*
X186904285Y-59375771D01*
X186904285Y-59375771D02*
X186856666Y-59423390D01*
X186856666Y-59423390D02*
X186761428Y-59471009D01*
X186761428Y-59471009D02*
X186428095Y-59471009D01*
X95218286Y-94030819D02*
X95218286Y-93030819D01*
X95218286Y-93507009D02*
X95789714Y-93507009D01*
X95789714Y-94030819D02*
X95789714Y-93030819D01*
X155535333Y-147813580D02*
X155487714Y-147861200D01*
X155487714Y-147861200D02*
X155344857Y-147908819D01*
X155344857Y-147908819D02*
X155249619Y-147908819D01*
X155249619Y-147908819D02*
X155106762Y-147861200D01*
X155106762Y-147861200D02*
X155011524Y-147765961D01*
X155011524Y-147765961D02*
X154963905Y-147670723D01*
X154963905Y-147670723D02*
X154916286Y-147480247D01*
X154916286Y-147480247D02*
X154916286Y-147337390D01*
X154916286Y-147337390D02*
X154963905Y-147146914D01*
X154963905Y-147146914D02*
X155011524Y-147051676D01*
X155011524Y-147051676D02*
X155106762Y-146956438D01*
X155106762Y-146956438D02*
X155249619Y-146908819D01*
X155249619Y-146908819D02*
X155344857Y-146908819D01*
X155344857Y-146908819D02*
X155487714Y-146956438D01*
X155487714Y-146956438D02*
X155535333Y-147004057D01*
X155916286Y-147004057D02*
X155963905Y-146956438D01*
X155963905Y-146956438D02*
X156059143Y-146908819D01*
X156059143Y-146908819D02*
X156297238Y-146908819D01*
X156297238Y-146908819D02*
X156392476Y-146956438D01*
X156392476Y-146956438D02*
X156440095Y-147004057D01*
X156440095Y-147004057D02*
X156487714Y-147099295D01*
X156487714Y-147099295D02*
X156487714Y-147194533D01*
X156487714Y-147194533D02*
X156440095Y-147337390D01*
X156440095Y-147337390D02*
X155868667Y-147908819D01*
X155868667Y-147908819D02*
X156487714Y-147908819D01*
X156043333Y-69044819D02*
X155710000Y-68568628D01*
X155471905Y-69044819D02*
X155471905Y-68044819D01*
X155471905Y-68044819D02*
X155852857Y-68044819D01*
X155852857Y-68044819D02*
X155948095Y-68092438D01*
X155948095Y-68092438D02*
X155995714Y-68140057D01*
X155995714Y-68140057D02*
X156043333Y-68235295D01*
X156043333Y-68235295D02*
X156043333Y-68378152D01*
X156043333Y-68378152D02*
X155995714Y-68473390D01*
X155995714Y-68473390D02*
X155948095Y-68521009D01*
X155948095Y-68521009D02*
X155852857Y-68568628D01*
X155852857Y-68568628D02*
X155471905Y-68568628D01*
X156900476Y-68378152D02*
X156900476Y-69044819D01*
X156662381Y-67997200D02*
X156424286Y-68711485D01*
X156424286Y-68711485D02*
X157043333Y-68711485D01*
X140755714Y-59471009D02*
X141089047Y-59471009D01*
X141231904Y-59994819D02*
X140755714Y-59994819D01*
X140755714Y-59994819D02*
X140755714Y-58994819D01*
X140755714Y-58994819D02*
X141231904Y-58994819D01*
X186777333Y-103080819D02*
X186444000Y-102604628D01*
X186205905Y-103080819D02*
X186205905Y-102080819D01*
X186205905Y-102080819D02*
X186586857Y-102080819D01*
X186586857Y-102080819D02*
X186682095Y-102128438D01*
X186682095Y-102128438D02*
X186729714Y-102176057D01*
X186729714Y-102176057D02*
X186777333Y-102271295D01*
X186777333Y-102271295D02*
X186777333Y-102414152D01*
X186777333Y-102414152D02*
X186729714Y-102509390D01*
X186729714Y-102509390D02*
X186682095Y-102557009D01*
X186682095Y-102557009D02*
X186586857Y-102604628D01*
X186586857Y-102604628D02*
X186205905Y-102604628D01*
X187158286Y-102176057D02*
X187205905Y-102128438D01*
X187205905Y-102128438D02*
X187301143Y-102080819D01*
X187301143Y-102080819D02*
X187539238Y-102080819D01*
X187539238Y-102080819D02*
X187634476Y-102128438D01*
X187634476Y-102128438D02*
X187682095Y-102176057D01*
X187682095Y-102176057D02*
X187729714Y-102271295D01*
X187729714Y-102271295D02*
X187729714Y-102366533D01*
X187729714Y-102366533D02*
X187682095Y-102509390D01*
X187682095Y-102509390D02*
X187110667Y-103080819D01*
X187110667Y-103080819D02*
X187729714Y-103080819D01*
X141009714Y-93507009D02*
X141343047Y-93507009D01*
X141485904Y-94030819D02*
X141009714Y-94030819D01*
X141009714Y-94030819D02*
X141009714Y-93030819D01*
X141009714Y-93030819D02*
X141485904Y-93030819D01*
X144121714Y-77623200D02*
X144264571Y-77670819D01*
X144264571Y-77670819D02*
X144502666Y-77670819D01*
X144502666Y-77670819D02*
X144597904Y-77623200D01*
X144597904Y-77623200D02*
X144645523Y-77575580D01*
X144645523Y-77575580D02*
X144693142Y-77480342D01*
X144693142Y-77480342D02*
X144693142Y-77385104D01*
X144693142Y-77385104D02*
X144645523Y-77289866D01*
X144645523Y-77289866D02*
X144597904Y-77242247D01*
X144597904Y-77242247D02*
X144502666Y-77194628D01*
X144502666Y-77194628D02*
X144312190Y-77147009D01*
X144312190Y-77147009D02*
X144216952Y-77099390D01*
X144216952Y-77099390D02*
X144169333Y-77051771D01*
X144169333Y-77051771D02*
X144121714Y-76956533D01*
X144121714Y-76956533D02*
X144121714Y-76861295D01*
X144121714Y-76861295D02*
X144169333Y-76766057D01*
X144169333Y-76766057D02*
X144216952Y-76718438D01*
X144216952Y-76718438D02*
X144312190Y-76670819D01*
X144312190Y-76670819D02*
X144550285Y-76670819D01*
X144550285Y-76670819D02*
X144693142Y-76718438D01*
X145121714Y-77670819D02*
X145121714Y-76670819D01*
X145121714Y-76670819D02*
X145693142Y-77670819D01*
X145693142Y-77670819D02*
X145693142Y-76670819D01*
X146645523Y-76670819D02*
X146169333Y-76670819D01*
X146169333Y-76670819D02*
X146121714Y-77147009D01*
X146121714Y-77147009D02*
X146169333Y-77099390D01*
X146169333Y-77099390D02*
X146264571Y-77051771D01*
X146264571Y-77051771D02*
X146502666Y-77051771D01*
X146502666Y-77051771D02*
X146597904Y-77099390D01*
X146597904Y-77099390D02*
X146645523Y-77147009D01*
X146645523Y-77147009D02*
X146693142Y-77242247D01*
X146693142Y-77242247D02*
X146693142Y-77480342D01*
X146693142Y-77480342D02*
X146645523Y-77575580D01*
X146645523Y-77575580D02*
X146597904Y-77623200D01*
X146597904Y-77623200D02*
X146502666Y-77670819D01*
X146502666Y-77670819D02*
X146264571Y-77670819D01*
X146264571Y-77670819D02*
X146169333Y-77623200D01*
X146169333Y-77623200D02*
X146121714Y-77575580D01*
X147550285Y-77004152D02*
X147550285Y-77670819D01*
X147312190Y-76623200D02*
X147074095Y-77337485D01*
X147074095Y-77337485D02*
X147693142Y-77337485D01*
X148074095Y-77670819D02*
X148074095Y-76670819D01*
X148074095Y-77147009D02*
X148645523Y-77147009D01*
X148645523Y-77670819D02*
X148645523Y-76670819D01*
X149693142Y-77575580D02*
X149645523Y-77623200D01*
X149645523Y-77623200D02*
X149502666Y-77670819D01*
X149502666Y-77670819D02*
X149407428Y-77670819D01*
X149407428Y-77670819D02*
X149264571Y-77623200D01*
X149264571Y-77623200D02*
X149169333Y-77527961D01*
X149169333Y-77527961D02*
X149121714Y-77432723D01*
X149121714Y-77432723D02*
X149074095Y-77242247D01*
X149074095Y-77242247D02*
X149074095Y-77099390D01*
X149074095Y-77099390D02*
X149121714Y-76908914D01*
X149121714Y-76908914D02*
X149169333Y-76813676D01*
X149169333Y-76813676D02*
X149264571Y-76718438D01*
X149264571Y-76718438D02*
X149407428Y-76670819D01*
X149407428Y-76670819D02*
X149502666Y-76670819D01*
X149502666Y-76670819D02*
X149645523Y-76718438D01*
X149645523Y-76718438D02*
X149693142Y-76766057D01*
X150597904Y-76670819D02*
X150121714Y-76670819D01*
X150121714Y-76670819D02*
X150074095Y-77147009D01*
X150074095Y-77147009D02*
X150121714Y-77099390D01*
X150121714Y-77099390D02*
X150216952Y-77051771D01*
X150216952Y-77051771D02*
X150455047Y-77051771D01*
X150455047Y-77051771D02*
X150550285Y-77099390D01*
X150550285Y-77099390D02*
X150597904Y-77147009D01*
X150597904Y-77147009D02*
X150645523Y-77242247D01*
X150645523Y-77242247D02*
X150645523Y-77480342D01*
X150645523Y-77480342D02*
X150597904Y-77575580D01*
X150597904Y-77575580D02*
X150550285Y-77623200D01*
X150550285Y-77623200D02*
X150455047Y-77670819D01*
X150455047Y-77670819D02*
X150216952Y-77670819D01*
X150216952Y-77670819D02*
X150121714Y-77623200D01*
X150121714Y-77623200D02*
X150074095Y-77575580D01*
X151121714Y-77670819D02*
X151312190Y-77670819D01*
X151312190Y-77670819D02*
X151407428Y-77623200D01*
X151407428Y-77623200D02*
X151455047Y-77575580D01*
X151455047Y-77575580D02*
X151550285Y-77432723D01*
X151550285Y-77432723D02*
X151597904Y-77242247D01*
X151597904Y-77242247D02*
X151597904Y-76861295D01*
X151597904Y-76861295D02*
X151550285Y-76766057D01*
X151550285Y-76766057D02*
X151502666Y-76718438D01*
X151502666Y-76718438D02*
X151407428Y-76670819D01*
X151407428Y-76670819D02*
X151216952Y-76670819D01*
X151216952Y-76670819D02*
X151121714Y-76718438D01*
X151121714Y-76718438D02*
X151074095Y-76766057D01*
X151074095Y-76766057D02*
X151026476Y-76861295D01*
X151026476Y-76861295D02*
X151026476Y-77099390D01*
X151026476Y-77099390D02*
X151074095Y-77194628D01*
X151074095Y-77194628D02*
X151121714Y-77242247D01*
X151121714Y-77242247D02*
X151216952Y-77289866D01*
X151216952Y-77289866D02*
X151407428Y-77289866D01*
X151407428Y-77289866D02*
X151502666Y-77242247D01*
X151502666Y-77242247D02*
X151550285Y-77194628D01*
X151550285Y-77194628D02*
X151597904Y-77099390D01*
X152502666Y-76670819D02*
X152026476Y-76670819D01*
X152026476Y-76670819D02*
X151978857Y-77147009D01*
X151978857Y-77147009D02*
X152026476Y-77099390D01*
X152026476Y-77099390D02*
X152121714Y-77051771D01*
X152121714Y-77051771D02*
X152359809Y-77051771D01*
X152359809Y-77051771D02*
X152455047Y-77099390D01*
X152455047Y-77099390D02*
X152502666Y-77147009D01*
X152502666Y-77147009D02*
X152550285Y-77242247D01*
X152550285Y-77242247D02*
X152550285Y-77480342D01*
X152550285Y-77480342D02*
X152502666Y-77575580D01*
X152502666Y-77575580D02*
X152455047Y-77623200D01*
X152455047Y-77623200D02*
X152359809Y-77670819D01*
X152359809Y-77670819D02*
X152121714Y-77670819D01*
X152121714Y-77670819D02*
X152026476Y-77623200D01*
X152026476Y-77623200D02*
X151978857Y-77575580D01*
X160210667Y-154500819D02*
X160210667Y-153500819D01*
X160210667Y-153500819D02*
X160591619Y-153500819D01*
X160591619Y-153500819D02*
X160686857Y-153548438D01*
X160686857Y-153548438D02*
X160734476Y-153596057D01*
X160734476Y-153596057D02*
X160782095Y-153691295D01*
X160782095Y-153691295D02*
X160782095Y-153834152D01*
X160782095Y-153834152D02*
X160734476Y-153929390D01*
X160734476Y-153929390D02*
X160686857Y-153977009D01*
X160686857Y-153977009D02*
X160591619Y-154024628D01*
X160591619Y-154024628D02*
X160210667Y-154024628D01*
X161115429Y-153500819D02*
X161353524Y-154500819D01*
X161353524Y-154500819D02*
X161544000Y-153786533D01*
X161544000Y-153786533D02*
X161734476Y-154500819D01*
X161734476Y-154500819D02*
X161972572Y-153500819D01*
X162924952Y-154500819D02*
X162591619Y-154024628D01*
X162353524Y-154500819D02*
X162353524Y-153500819D01*
X162353524Y-153500819D02*
X162734476Y-153500819D01*
X162734476Y-153500819D02*
X162829714Y-153548438D01*
X162829714Y-153548438D02*
X162877333Y-153596057D01*
X162877333Y-153596057D02*
X162924952Y-153691295D01*
X162924952Y-153691295D02*
X162924952Y-153834152D01*
X162924952Y-153834152D02*
X162877333Y-153929390D01*
X162877333Y-153929390D02*
X162829714Y-153977009D01*
X162829714Y-153977009D02*
X162734476Y-154024628D01*
X162734476Y-154024628D02*
X162353524Y-154024628D01*
X155948095Y-59994819D02*
X155948095Y-58994819D01*
X155948095Y-58994819D02*
X156186190Y-58994819D01*
X156186190Y-58994819D02*
X156329047Y-59042438D01*
X156329047Y-59042438D02*
X156424285Y-59137676D01*
X156424285Y-59137676D02*
X156471904Y-59232914D01*
X156471904Y-59232914D02*
X156519523Y-59423390D01*
X156519523Y-59423390D02*
X156519523Y-59566247D01*
X156519523Y-59566247D02*
X156471904Y-59756723D01*
X156471904Y-59756723D02*
X156424285Y-59851961D01*
X156424285Y-59851961D02*
X156329047Y-59947200D01*
X156329047Y-59947200D02*
X156186190Y-59994819D01*
X156186190Y-59994819D02*
X155948095Y-59994819D01*
X162139333Y-147853580D02*
X162091714Y-147901200D01*
X162091714Y-147901200D02*
X161948857Y-147948819D01*
X161948857Y-147948819D02*
X161853619Y-147948819D01*
X161853619Y-147948819D02*
X161710762Y-147901200D01*
X161710762Y-147901200D02*
X161615524Y-147805961D01*
X161615524Y-147805961D02*
X161567905Y-147710723D01*
X161567905Y-147710723D02*
X161520286Y-147520247D01*
X161520286Y-147520247D02*
X161520286Y-147377390D01*
X161520286Y-147377390D02*
X161567905Y-147186914D01*
X161567905Y-147186914D02*
X161615524Y-147091676D01*
X161615524Y-147091676D02*
X161710762Y-146996438D01*
X161710762Y-146996438D02*
X161853619Y-146948819D01*
X161853619Y-146948819D02*
X161948857Y-146948819D01*
X161948857Y-146948819D02*
X162091714Y-146996438D01*
X162091714Y-146996438D02*
X162139333Y-147044057D01*
X163091714Y-147948819D02*
X162520286Y-147948819D01*
X162806000Y-147948819D02*
X162806000Y-146948819D01*
X162806000Y-146948819D02*
X162710762Y-147091676D01*
X162710762Y-147091676D02*
X162615524Y-147186914D01*
X162615524Y-147186914D02*
X162520286Y-147234533D01*
D11*
%TO.C,C*%
X168890000Y-61955000D02*
X168890000Y-65045000D01*
X174439999Y-63500462D02*
G75*
G03*
X168890001Y-61955170I-2989999J462D01*
G01*
X168890000Y-65044830D02*
G75*
G03*
X174440000Y-63499538I2560000J1544830D01*
G01*
X173950000Y-63500000D02*
G75*
G03*
X173950000Y-63500000I-2500000J0D01*
G01*
%TO.C,C4*%
X141175000Y-147274113D02*
X141175000Y-147774113D01*
X141425000Y-147524113D02*
X140925000Y-147524113D01*
X142280000Y-150078888D02*
X137120000Y-150078888D01*
X142280000Y-150118888D02*
X137120000Y-150118888D01*
X142279000Y-150158888D02*
X137121000Y-150158888D01*
X142278000Y-150198888D02*
X137122000Y-150198888D01*
X142276000Y-150238888D02*
X137124000Y-150238888D01*
X142273000Y-150278888D02*
X137127000Y-150278888D01*
X142269000Y-150318888D02*
X140740000Y-150318888D01*
X138660000Y-150318888D02*
X137131000Y-150318888D01*
X142265000Y-150358888D02*
X140740000Y-150358888D01*
X138660000Y-150358888D02*
X137135000Y-150358888D01*
X142261000Y-150398888D02*
X140740000Y-150398888D01*
X138660000Y-150398888D02*
X137139000Y-150398888D01*
X142256000Y-150438888D02*
X140740000Y-150438888D01*
X138660000Y-150438888D02*
X137144000Y-150438888D01*
X142250000Y-150478888D02*
X140740000Y-150478888D01*
X138660000Y-150478888D02*
X137150000Y-150478888D01*
X142243000Y-150518888D02*
X140740000Y-150518888D01*
X138660000Y-150518888D02*
X137157000Y-150518888D01*
X142236000Y-150558888D02*
X140740000Y-150558888D01*
X138660000Y-150558888D02*
X137164000Y-150558888D01*
X142228000Y-150598888D02*
X140740000Y-150598888D01*
X138660000Y-150598888D02*
X137172000Y-150598888D01*
X142220000Y-150638888D02*
X140740000Y-150638888D01*
X138660000Y-150638888D02*
X137180000Y-150638888D01*
X142211000Y-150678888D02*
X140740000Y-150678888D01*
X138660000Y-150678888D02*
X137189000Y-150678888D01*
X142201000Y-150718888D02*
X140740000Y-150718888D01*
X138660000Y-150718888D02*
X137199000Y-150718888D01*
X142191000Y-150758888D02*
X140740000Y-150758888D01*
X138660000Y-150758888D02*
X137209000Y-150758888D01*
X142180000Y-150799888D02*
X140740000Y-150799888D01*
X138660000Y-150799888D02*
X137220000Y-150799888D01*
X142168000Y-150839888D02*
X140740000Y-150839888D01*
X138660000Y-150839888D02*
X137232000Y-150839888D01*
X142155000Y-150879888D02*
X140740000Y-150879888D01*
X138660000Y-150879888D02*
X137245000Y-150879888D01*
X142142000Y-150919888D02*
X140740000Y-150919888D01*
X138660000Y-150919888D02*
X137258000Y-150919888D01*
X142128000Y-150959888D02*
X140740000Y-150959888D01*
X138660000Y-150959888D02*
X137272000Y-150959888D01*
X142114000Y-150999888D02*
X140740000Y-150999888D01*
X138660000Y-150999888D02*
X137286000Y-150999888D01*
X142098000Y-151039888D02*
X140740000Y-151039888D01*
X138660000Y-151039888D02*
X137302000Y-151039888D01*
X142082000Y-151079888D02*
X140740000Y-151079888D01*
X138660000Y-151079888D02*
X137318000Y-151079888D01*
X142065000Y-151119888D02*
X140740000Y-151119888D01*
X138660000Y-151119888D02*
X137335000Y-151119888D01*
X142048000Y-151159888D02*
X140740000Y-151159888D01*
X138660000Y-151159888D02*
X137352000Y-151159888D01*
X142029000Y-151199888D02*
X140740000Y-151199888D01*
X138660000Y-151199888D02*
X137371000Y-151199888D01*
X142010000Y-151239888D02*
X140740000Y-151239888D01*
X138660000Y-151239888D02*
X137390000Y-151239888D01*
X141990000Y-151279888D02*
X140740000Y-151279888D01*
X138660000Y-151279888D02*
X137410000Y-151279888D01*
X141968000Y-151319888D02*
X140740000Y-151319888D01*
X138660000Y-151319888D02*
X137432000Y-151319888D01*
X141947000Y-151359888D02*
X140740000Y-151359888D01*
X138660000Y-151359888D02*
X137453000Y-151359888D01*
X141924000Y-151399888D02*
X140740000Y-151399888D01*
X138660000Y-151399888D02*
X137476000Y-151399888D01*
X141900000Y-151439888D02*
X140740000Y-151439888D01*
X138660000Y-151439888D02*
X137500000Y-151439888D01*
X141875000Y-151479888D02*
X140740000Y-151479888D01*
X138660000Y-151479888D02*
X137525000Y-151479888D01*
X141849000Y-151519888D02*
X140740000Y-151519888D01*
X138660000Y-151519888D02*
X137551000Y-151519888D01*
X141822000Y-151559888D02*
X140740000Y-151559888D01*
X138660000Y-151559888D02*
X137578000Y-151559888D01*
X141795000Y-151599888D02*
X140740000Y-151599888D01*
X138660000Y-151599888D02*
X137605000Y-151599888D01*
X141765000Y-151639888D02*
X140740000Y-151639888D01*
X138660000Y-151639888D02*
X137635000Y-151639888D01*
X141735000Y-151679888D02*
X140740000Y-151679888D01*
X138660000Y-151679888D02*
X137665000Y-151679888D01*
X141704000Y-151719888D02*
X140740000Y-151719888D01*
X138660000Y-151719888D02*
X137696000Y-151719888D01*
X141671000Y-151759888D02*
X140740000Y-151759888D01*
X138660000Y-151759888D02*
X137729000Y-151759888D01*
X141637000Y-151799888D02*
X140740000Y-151799888D01*
X138660000Y-151799888D02*
X137763000Y-151799888D01*
X141601000Y-151839888D02*
X140740000Y-151839888D01*
X138660000Y-151839888D02*
X137799000Y-151839888D01*
X141564000Y-151879888D02*
X140740000Y-151879888D01*
X138660000Y-151879888D02*
X137836000Y-151879888D01*
X141526000Y-151919888D02*
X140740000Y-151919888D01*
X138660000Y-151919888D02*
X137874000Y-151919888D01*
X141485000Y-151959888D02*
X140740000Y-151959888D01*
X138660000Y-151959888D02*
X137915000Y-151959888D01*
X141443000Y-151999888D02*
X140740000Y-151999888D01*
X138660000Y-151999888D02*
X137957000Y-151999888D01*
X141399000Y-152039888D02*
X140740000Y-152039888D01*
X138660000Y-152039888D02*
X138001000Y-152039888D01*
X141353000Y-152079888D02*
X140740000Y-152079888D01*
X138660000Y-152079888D02*
X138047000Y-152079888D01*
X141305000Y-152119888D02*
X140740000Y-152119888D01*
X138660000Y-152119888D02*
X138095000Y-152119888D01*
X141254000Y-152159888D02*
X140740000Y-152159888D01*
X138660000Y-152159888D02*
X138146000Y-152159888D01*
X141200000Y-152199888D02*
X140740000Y-152199888D01*
X138660000Y-152199888D02*
X138200000Y-152199888D01*
X141143000Y-152239888D02*
X140740000Y-152239888D01*
X138660000Y-152239888D02*
X138257000Y-152239888D01*
X141083000Y-152279888D02*
X140740000Y-152279888D01*
X138660000Y-152279888D02*
X138317000Y-152279888D01*
X141019000Y-152319888D02*
X140740000Y-152319888D01*
X138660000Y-152319888D02*
X138381000Y-152319888D01*
X140951000Y-152359888D02*
X140740000Y-152359888D01*
X138660000Y-152359888D02*
X138449000Y-152359888D01*
X140878000Y-152399888D02*
X138522000Y-152399888D01*
X140798000Y-152439888D02*
X138602000Y-152439888D01*
X140711000Y-152479888D02*
X138689000Y-152479888D01*
X140615000Y-152519888D02*
X138785000Y-152519888D01*
X140505000Y-152559888D02*
X138895000Y-152559888D01*
X140377000Y-152599888D02*
X139023000Y-152599888D01*
X140218000Y-152639888D02*
X139182000Y-152639888D01*
X139984000Y-152679888D02*
X139416000Y-152679888D01*
X142320000Y-150078888D02*
G75*
G03*
X142320000Y-150078888I-2620000J0D01*
G01*
%TO.C,REF\u002A\u002A*%
X167496000Y-147577000D02*
X169996000Y-147577000D01*
X169996000Y-147577000D02*
X169996000Y-145077000D01*
X165676000Y-147277000D02*
X169696000Y-147277000D01*
X167386000Y-147277000D02*
X167386000Y-146777000D01*
X168196000Y-147277000D02*
X168196000Y-146277000D01*
X169696000Y-147277000D02*
X169696000Y-132057000D01*
X166176000Y-146777000D02*
X166176000Y-132557000D01*
X167386000Y-146777000D02*
X166176000Y-146777000D01*
X168196000Y-146277000D02*
X169696000Y-146277000D01*
X168196000Y-133057000D02*
X169696000Y-133057000D01*
X166176000Y-132557000D02*
X167386000Y-132557000D01*
X167386000Y-132557000D02*
X167386000Y-132057000D01*
X165676000Y-132057000D02*
X165676000Y-147277000D01*
X168196000Y-132057000D02*
X168196000Y-133057000D01*
X169696000Y-132057000D02*
X165676000Y-132057000D01*
%TO.C,R4*%
X152424000Y-102616000D02*
X153194000Y-102616000D01*
X153194000Y-101246000D02*
X153194000Y-103986000D01*
X153194000Y-103986000D02*
X159734000Y-103986000D01*
X159734000Y-101246000D02*
X153194000Y-101246000D01*
X159734000Y-103986000D02*
X159734000Y-101246000D01*
X160504000Y-102616000D02*
X159734000Y-102616000D01*
%TO.C,R6*%
X121944000Y-102616000D02*
X122714000Y-102616000D01*
X122714000Y-101246000D02*
X122714000Y-103986000D01*
X122714000Y-103986000D02*
X129254000Y-103986000D01*
X129254000Y-101246000D02*
X122714000Y-101246000D01*
X129254000Y-103986000D02*
X129254000Y-101246000D01*
X130024000Y-102616000D02*
X129254000Y-102616000D01*
%TO.C,F*%
X123170000Y-61955000D02*
X123170000Y-65045000D01*
X128719999Y-63500462D02*
G75*
G03*
X123170001Y-61955170I-2989999J462D01*
G01*
X123170000Y-65044830D02*
G75*
G03*
X128720000Y-63499538I2560000J1544830D01*
G01*
X128230000Y-63500000D02*
G75*
G03*
X128230000Y-63500000I-2500000J0D01*
G01*
%TO.C,B*%
X184384000Y-95991000D02*
X184384000Y-99081000D01*
X189933999Y-97536462D02*
G75*
G03*
X184384001Y-95991170I-2989999J462D01*
G01*
X184384000Y-99080830D02*
G75*
G03*
X189934000Y-97535538I2560000J1544830D01*
G01*
X189444000Y-97536000D02*
G75*
G03*
X189444000Y-97536000I-2500000J0D01*
G01*
%TO.C,R5*%
X136930000Y-68580000D02*
X137700000Y-68580000D01*
X137700000Y-67210000D02*
X137700000Y-69950000D01*
X137700000Y-69950000D02*
X144240000Y-69950000D01*
X144240000Y-67210000D02*
X137700000Y-67210000D01*
X144240000Y-69950000D02*
X144240000Y-67210000D01*
X145010000Y-68580000D02*
X144240000Y-68580000D01*
%TO.C,A*%
X199370000Y-61955000D02*
X199370000Y-65045000D01*
X204919999Y-63500462D02*
G75*
G03*
X199370001Y-61955170I-2989999J462D01*
G01*
X199370000Y-65044830D02*
G75*
G03*
X204920000Y-63499538I2560000J1544830D01*
G01*
X204430000Y-63500000D02*
G75*
G03*
X204430000Y-63500000I-2500000J0D01*
G01*
X199624000Y-95991000D02*
X199624000Y-99081000D01*
X205173999Y-97536462D02*
G75*
G03*
X199624001Y-95991170I-2989999J462D01*
G01*
X199624000Y-99080830D02*
G75*
G03*
X205174000Y-97535538I2560000J1544830D01*
G01*
X204684000Y-97536000D02*
G75*
G03*
X204684000Y-97536000I-2500000J0D01*
G01*
%TO.C,R5*%
X137184000Y-102616000D02*
X137954000Y-102616000D01*
X137954000Y-101246000D02*
X137954000Y-103986000D01*
X137954000Y-103986000D02*
X144494000Y-103986000D01*
X144494000Y-101246000D02*
X137954000Y-101246000D01*
X144494000Y-103986000D02*
X144494000Y-101246000D01*
X145264000Y-102616000D02*
X144494000Y-102616000D01*
%TO.C,C3*%
X147779000Y-147274113D02*
X147779000Y-147774113D01*
X148029000Y-147524113D02*
X147529000Y-147524113D01*
X148884000Y-150078888D02*
X143724000Y-150078888D01*
X148884000Y-150118888D02*
X143724000Y-150118888D01*
X148883000Y-150158888D02*
X143725000Y-150158888D01*
X148882000Y-150198888D02*
X143726000Y-150198888D01*
X148880000Y-150238888D02*
X143728000Y-150238888D01*
X148877000Y-150278888D02*
X143731000Y-150278888D01*
X148873000Y-150318888D02*
X147344000Y-150318888D01*
X145264000Y-150318888D02*
X143735000Y-150318888D01*
X148869000Y-150358888D02*
X147344000Y-150358888D01*
X145264000Y-150358888D02*
X143739000Y-150358888D01*
X148865000Y-150398888D02*
X147344000Y-150398888D01*
X145264000Y-150398888D02*
X143743000Y-150398888D01*
X148860000Y-150438888D02*
X147344000Y-150438888D01*
X145264000Y-150438888D02*
X143748000Y-150438888D01*
X148854000Y-150478888D02*
X147344000Y-150478888D01*
X145264000Y-150478888D02*
X143754000Y-150478888D01*
X148847000Y-150518888D02*
X147344000Y-150518888D01*
X145264000Y-150518888D02*
X143761000Y-150518888D01*
X148840000Y-150558888D02*
X147344000Y-150558888D01*
X145264000Y-150558888D02*
X143768000Y-150558888D01*
X148832000Y-150598888D02*
X147344000Y-150598888D01*
X145264000Y-150598888D02*
X143776000Y-150598888D01*
X148824000Y-150638888D02*
X147344000Y-150638888D01*
X145264000Y-150638888D02*
X143784000Y-150638888D01*
X148815000Y-150678888D02*
X147344000Y-150678888D01*
X145264000Y-150678888D02*
X143793000Y-150678888D01*
X148805000Y-150718888D02*
X147344000Y-150718888D01*
X145264000Y-150718888D02*
X143803000Y-150718888D01*
X148795000Y-150758888D02*
X147344000Y-150758888D01*
X145264000Y-150758888D02*
X143813000Y-150758888D01*
X148784000Y-150799888D02*
X147344000Y-150799888D01*
X145264000Y-150799888D02*
X143824000Y-150799888D01*
X148772000Y-150839888D02*
X147344000Y-150839888D01*
X145264000Y-150839888D02*
X143836000Y-150839888D01*
X148759000Y-150879888D02*
X147344000Y-150879888D01*
X145264000Y-150879888D02*
X143849000Y-150879888D01*
X148746000Y-150919888D02*
X147344000Y-150919888D01*
X145264000Y-150919888D02*
X143862000Y-150919888D01*
X148732000Y-150959888D02*
X147344000Y-150959888D01*
X145264000Y-150959888D02*
X143876000Y-150959888D01*
X148718000Y-150999888D02*
X147344000Y-150999888D01*
X145264000Y-150999888D02*
X143890000Y-150999888D01*
X148702000Y-151039888D02*
X147344000Y-151039888D01*
X145264000Y-151039888D02*
X143906000Y-151039888D01*
X148686000Y-151079888D02*
X147344000Y-151079888D01*
X145264000Y-151079888D02*
X143922000Y-151079888D01*
X148669000Y-151119888D02*
X147344000Y-151119888D01*
X145264000Y-151119888D02*
X143939000Y-151119888D01*
X148652000Y-151159888D02*
X147344000Y-151159888D01*
X145264000Y-151159888D02*
X143956000Y-151159888D01*
X148633000Y-151199888D02*
X147344000Y-151199888D01*
X145264000Y-151199888D02*
X143975000Y-151199888D01*
X148614000Y-151239888D02*
X147344000Y-151239888D01*
X145264000Y-151239888D02*
X143994000Y-151239888D01*
X148594000Y-151279888D02*
X147344000Y-151279888D01*
X145264000Y-151279888D02*
X144014000Y-151279888D01*
X148572000Y-151319888D02*
X147344000Y-151319888D01*
X145264000Y-151319888D02*
X144036000Y-151319888D01*
X148551000Y-151359888D02*
X147344000Y-151359888D01*
X145264000Y-151359888D02*
X144057000Y-151359888D01*
X148528000Y-151399888D02*
X147344000Y-151399888D01*
X145264000Y-151399888D02*
X144080000Y-151399888D01*
X148504000Y-151439888D02*
X147344000Y-151439888D01*
X145264000Y-151439888D02*
X144104000Y-151439888D01*
X148479000Y-151479888D02*
X147344000Y-151479888D01*
X145264000Y-151479888D02*
X144129000Y-151479888D01*
X148453000Y-151519888D02*
X147344000Y-151519888D01*
X145264000Y-151519888D02*
X144155000Y-151519888D01*
X148426000Y-151559888D02*
X147344000Y-151559888D01*
X145264000Y-151559888D02*
X144182000Y-151559888D01*
X148399000Y-151599888D02*
X147344000Y-151599888D01*
X145264000Y-151599888D02*
X144209000Y-151599888D01*
X148369000Y-151639888D02*
X147344000Y-151639888D01*
X145264000Y-151639888D02*
X144239000Y-151639888D01*
X148339000Y-151679888D02*
X147344000Y-151679888D01*
X145264000Y-151679888D02*
X144269000Y-151679888D01*
X148308000Y-151719888D02*
X147344000Y-151719888D01*
X145264000Y-151719888D02*
X144300000Y-151719888D01*
X148275000Y-151759888D02*
X147344000Y-151759888D01*
X145264000Y-151759888D02*
X144333000Y-151759888D01*
X148241000Y-151799888D02*
X147344000Y-151799888D01*
X145264000Y-151799888D02*
X144367000Y-151799888D01*
X148205000Y-151839888D02*
X147344000Y-151839888D01*
X145264000Y-151839888D02*
X144403000Y-151839888D01*
X148168000Y-151879888D02*
X147344000Y-151879888D01*
X145264000Y-151879888D02*
X144440000Y-151879888D01*
X148130000Y-151919888D02*
X147344000Y-151919888D01*
X145264000Y-151919888D02*
X144478000Y-151919888D01*
X148089000Y-151959888D02*
X147344000Y-151959888D01*
X145264000Y-151959888D02*
X144519000Y-151959888D01*
X148047000Y-151999888D02*
X147344000Y-151999888D01*
X145264000Y-151999888D02*
X144561000Y-151999888D01*
X148003000Y-152039888D02*
X147344000Y-152039888D01*
X145264000Y-152039888D02*
X144605000Y-152039888D01*
X147957000Y-152079888D02*
X147344000Y-152079888D01*
X145264000Y-152079888D02*
X144651000Y-152079888D01*
X147909000Y-152119888D02*
X147344000Y-152119888D01*
X145264000Y-152119888D02*
X144699000Y-152119888D01*
X147858000Y-152159888D02*
X147344000Y-152159888D01*
X145264000Y-152159888D02*
X144750000Y-152159888D01*
X147804000Y-152199888D02*
X147344000Y-152199888D01*
X145264000Y-152199888D02*
X144804000Y-152199888D01*
X147747000Y-152239888D02*
X147344000Y-152239888D01*
X145264000Y-152239888D02*
X144861000Y-152239888D01*
X147687000Y-152279888D02*
X147344000Y-152279888D01*
X145264000Y-152279888D02*
X144921000Y-152279888D01*
X147623000Y-152319888D02*
X147344000Y-152319888D01*
X145264000Y-152319888D02*
X144985000Y-152319888D01*
X147555000Y-152359888D02*
X147344000Y-152359888D01*
X145264000Y-152359888D02*
X145053000Y-152359888D01*
X147482000Y-152399888D02*
X145126000Y-152399888D01*
X147402000Y-152439888D02*
X145206000Y-152439888D01*
X147315000Y-152479888D02*
X145293000Y-152479888D01*
X147219000Y-152519888D02*
X145389000Y-152519888D01*
X147109000Y-152559888D02*
X145499000Y-152559888D01*
X146981000Y-152599888D02*
X145627000Y-152599888D01*
X146822000Y-152639888D02*
X145786000Y-152639888D01*
X146588000Y-152679888D02*
X146020000Y-152679888D01*
X148924000Y-150078888D02*
G75*
G03*
X148924000Y-150078888I-2620000J0D01*
G01*
%TO.C,R8*%
X91210000Y-68580000D02*
X91980000Y-68580000D01*
X91980000Y-67210000D02*
X91980000Y-69950000D01*
X91980000Y-69950000D02*
X98520000Y-69950000D01*
X98520000Y-67210000D02*
X91980000Y-67210000D01*
X98520000Y-69950000D02*
X98520000Y-67210000D01*
X99290000Y-68580000D02*
X98520000Y-68580000D01*
%TO.C,R7*%
X106704000Y-102616000D02*
X107474000Y-102616000D01*
X107474000Y-101246000D02*
X107474000Y-103986000D01*
X107474000Y-103986000D02*
X114014000Y-103986000D01*
X114014000Y-101246000D02*
X107474000Y-101246000D01*
X114014000Y-103986000D02*
X114014000Y-101246000D01*
X114784000Y-102616000D02*
X114014000Y-102616000D01*
%TO.C,H*%
X92690000Y-61955000D02*
X92690000Y-65045000D01*
X98239999Y-63500462D02*
G75*
G03*
X92690001Y-61955170I-2989999J462D01*
G01*
X92690000Y-65044830D02*
G75*
G03*
X98240000Y-63499538I2560000J1544830D01*
G01*
X97750000Y-63500000D02*
G75*
G03*
X97750000Y-63500000I-2500000J0D01*
G01*
%TO.C,R1*%
X198144000Y-102616000D02*
X198914000Y-102616000D01*
X198914000Y-101246000D02*
X198914000Y-103986000D01*
X198914000Y-103986000D02*
X205454000Y-103986000D01*
X205454000Y-101246000D02*
X198914000Y-101246000D01*
X205454000Y-103986000D02*
X205454000Y-101246000D01*
X206224000Y-102616000D02*
X205454000Y-102616000D01*
%TO.C,F*%
X123424000Y-95991000D02*
X123424000Y-99081000D01*
X128973999Y-97536462D02*
G75*
G03*
X123424001Y-95991170I-2989999J462D01*
G01*
X123424000Y-99080830D02*
G75*
G03*
X128974000Y-97535538I2560000J1544830D01*
G01*
X128484000Y-97536000D02*
G75*
G03*
X128484000Y-97536000I-2500000J0D01*
G01*
%TO.C,R2*%
X182650000Y-68580000D02*
X183420000Y-68580000D01*
X183420000Y-67210000D02*
X183420000Y-69950000D01*
X183420000Y-69950000D02*
X189960000Y-69950000D01*
X189960000Y-67210000D02*
X183420000Y-67210000D01*
X189960000Y-69950000D02*
X189960000Y-67210000D01*
X190730000Y-68580000D02*
X189960000Y-68580000D01*
%TO.C,R7*%
X106450000Y-68580000D02*
X107220000Y-68580000D01*
X107220000Y-67210000D02*
X107220000Y-69950000D01*
X107220000Y-69950000D02*
X113760000Y-69950000D01*
X113760000Y-67210000D02*
X107220000Y-67210000D01*
X113760000Y-69950000D02*
X113760000Y-67210000D01*
X114530000Y-68580000D02*
X113760000Y-68580000D01*
%TO.C,SW1*%
X147224000Y-156956000D02*
X147224000Y-159456000D01*
X147224000Y-159456000D02*
X149724000Y-159456000D01*
X147524000Y-155136000D02*
X147524000Y-159156000D01*
X147524000Y-156846000D02*
X148024000Y-156846000D01*
X147524000Y-157656000D02*
X148524000Y-157656000D01*
X147524000Y-159156000D02*
X155244000Y-159156000D01*
X148024000Y-155636000D02*
X154744000Y-155636000D01*
X148024000Y-156846000D02*
X148024000Y-155636000D01*
X148524000Y-157656000D02*
X148524000Y-159156000D01*
X154244000Y-157656000D02*
X154244000Y-159156000D01*
X154744000Y-155636000D02*
X154744000Y-156846000D01*
X154744000Y-156846000D02*
X155244000Y-156846000D01*
X155244000Y-155136000D02*
X147524000Y-155136000D01*
X155244000Y-157656000D02*
X154244000Y-157656000D01*
X155244000Y-159156000D02*
X155244000Y-155136000D01*
%TO.C,C*%
X169144000Y-95991000D02*
X169144000Y-99081000D01*
X174693999Y-97536462D02*
G75*
G03*
X169144001Y-95991170I-2989999J462D01*
G01*
X169144000Y-99080830D02*
G75*
G03*
X174694000Y-97535538I2560000J1544830D01*
G01*
X174204000Y-97536000D02*
G75*
G03*
X174204000Y-97536000I-2500000J0D01*
G01*
%TO.C,R3*%
X167664000Y-102616000D02*
X168434000Y-102616000D01*
X168434000Y-101246000D02*
X168434000Y-103986000D01*
X168434000Y-103986000D02*
X174974000Y-103986000D01*
X174974000Y-101246000D02*
X168434000Y-101246000D01*
X174974000Y-103986000D02*
X174974000Y-101246000D01*
X175744000Y-102616000D02*
X174974000Y-102616000D01*
%TO.C,MSP430G2553*%
X161858000Y-133922000D02*
X136338000Y-133922000D01*
X136338000Y-133922000D02*
X136338000Y-139222000D01*
X161858000Y-135572000D02*
X161858000Y-133922000D01*
X161858000Y-139222000D02*
X161858000Y-137572000D01*
X136338000Y-139222000D02*
X161858000Y-139222000D01*
X161858000Y-135572000D02*
G75*
G03*
X161858000Y-137572000I0J-1000000D01*
G01*
%TO.C,R3*%
X167410000Y-68580000D02*
X168180000Y-68580000D01*
X168180000Y-67210000D02*
X168180000Y-69950000D01*
X168180000Y-69950000D02*
X174720000Y-69950000D01*
X174720000Y-67210000D02*
X168180000Y-67210000D01*
X174720000Y-69950000D02*
X174720000Y-67210000D01*
X175490000Y-68580000D02*
X174720000Y-68580000D01*
%TO.C,SW2*%
X134330000Y-156956000D02*
X134330000Y-159456000D01*
X134330000Y-159456000D02*
X136830000Y-159456000D01*
X134630000Y-155136000D02*
X134630000Y-159156000D01*
X134630000Y-156846000D02*
X135130000Y-156846000D01*
X134630000Y-157656000D02*
X135630000Y-157656000D01*
X134630000Y-159156000D02*
X144850000Y-159156000D01*
X135130000Y-155636000D02*
X144350000Y-155636000D01*
X135130000Y-156846000D02*
X135130000Y-155636000D01*
X135630000Y-157656000D02*
X135630000Y-159156000D01*
X143850000Y-157656000D02*
X143850000Y-159156000D01*
X144350000Y-155636000D02*
X144350000Y-156846000D01*
X144350000Y-156846000D02*
X144850000Y-156846000D01*
X144850000Y-155136000D02*
X134630000Y-155136000D01*
X144850000Y-157656000D02*
X143850000Y-157656000D01*
X144850000Y-159156000D02*
X144850000Y-155136000D01*
%TO.C,SN54HC595*%
X159049000Y-108866000D02*
X138609000Y-108866000D01*
X138609000Y-108866000D02*
X138609000Y-114166000D01*
X159049000Y-110516000D02*
X159049000Y-108866000D01*
X159049000Y-114166000D02*
X159049000Y-112516000D01*
X138609000Y-114166000D02*
X159049000Y-114166000D01*
X159049000Y-110516000D02*
G75*
G03*
X159049000Y-112516000I0J-1000000D01*
G01*
%TO.C,G*%
X108184000Y-95991000D02*
X108184000Y-99081000D01*
X113733999Y-97536462D02*
G75*
G03*
X108184001Y-95991170I-2989999J462D01*
G01*
X108184000Y-99080830D02*
G75*
G03*
X113734000Y-97535538I2560000J1544830D01*
G01*
X113244000Y-97536000D02*
G75*
G03*
X113244000Y-97536000I-2500000J0D01*
G01*
%TO.C,R1*%
X159488000Y-144446000D02*
X158718000Y-144446000D01*
X158718000Y-145816000D02*
X158718000Y-143076000D01*
X158718000Y-143076000D02*
X152178000Y-143076000D01*
X152178000Y-145816000D02*
X158718000Y-145816000D01*
X152178000Y-143076000D02*
X152178000Y-145816000D01*
X151408000Y-144446000D02*
X152178000Y-144446000D01*
%TO.C,REF\u002A\u002A*%
X130666000Y-147530000D02*
X133166000Y-147530000D01*
X133166000Y-147530000D02*
X133166000Y-145030000D01*
X128846000Y-147230000D02*
X132866000Y-147230000D01*
X130556000Y-147230000D02*
X130556000Y-146730000D01*
X131366000Y-147230000D02*
X131366000Y-146230000D01*
X132866000Y-147230000D02*
X132866000Y-132010000D01*
X129346000Y-146730000D02*
X129346000Y-132510000D01*
X130556000Y-146730000D02*
X129346000Y-146730000D01*
X131366000Y-146230000D02*
X132866000Y-146230000D01*
X131366000Y-133010000D02*
X132866000Y-133010000D01*
X129346000Y-132510000D02*
X130556000Y-132510000D01*
X130556000Y-132510000D02*
X130556000Y-132010000D01*
X128846000Y-132010000D02*
X128846000Y-147230000D01*
X131366000Y-132010000D02*
X131366000Y-133010000D01*
X132866000Y-132010000D02*
X128846000Y-132010000D01*
X140934000Y-121476000D02*
X140934000Y-123976000D01*
X140934000Y-123976000D02*
X143434000Y-123976000D01*
X141234000Y-119656000D02*
X141234000Y-123676000D01*
X141234000Y-121366000D02*
X141734000Y-121366000D01*
X141234000Y-122176000D02*
X142234000Y-122176000D01*
X141234000Y-123676000D02*
X156454000Y-123676000D01*
X141734000Y-120156000D02*
X155954000Y-120156000D01*
X141734000Y-121366000D02*
X141734000Y-120156000D01*
X142234000Y-122176000D02*
X142234000Y-123676000D01*
X155454000Y-122176000D02*
X155454000Y-123676000D01*
X155954000Y-120156000D02*
X155954000Y-121366000D01*
X155954000Y-121366000D02*
X156454000Y-121366000D01*
X156454000Y-119656000D02*
X141234000Y-119656000D01*
X156454000Y-122176000D02*
X155454000Y-122176000D01*
X156454000Y-123676000D02*
X156454000Y-119656000D01*
%TO.C,R8*%
X91464000Y-102616000D02*
X92234000Y-102616000D01*
X92234000Y-101246000D02*
X92234000Y-103986000D01*
X92234000Y-103986000D02*
X98774000Y-103986000D01*
X98774000Y-101246000D02*
X92234000Y-101246000D01*
X98774000Y-103986000D02*
X98774000Y-101246000D01*
X99544000Y-102616000D02*
X98774000Y-102616000D01*
%TO.C,R1*%
X197890000Y-68580000D02*
X198660000Y-68580000D01*
X198660000Y-67210000D02*
X198660000Y-69950000D01*
X198660000Y-69950000D02*
X205200000Y-69950000D01*
X205200000Y-67210000D02*
X198660000Y-67210000D01*
X205200000Y-69950000D02*
X205200000Y-67210000D01*
X205970000Y-68580000D02*
X205200000Y-68580000D01*
%TO.C,R6*%
X121690000Y-68580000D02*
X122460000Y-68580000D01*
X122460000Y-67210000D02*
X122460000Y-69950000D01*
X122460000Y-69950000D02*
X129000000Y-69950000D01*
X129000000Y-67210000D02*
X122460000Y-67210000D01*
X129000000Y-69950000D02*
X129000000Y-67210000D01*
X129770000Y-68580000D02*
X129000000Y-68580000D01*
%TO.C,D*%
X153904000Y-95991000D02*
X153904000Y-99081000D01*
X159453999Y-97536462D02*
G75*
G03*
X153904001Y-95991170I-2989999J462D01*
G01*
X153904000Y-99080830D02*
G75*
G03*
X159454000Y-97535538I2560000J1544830D01*
G01*
X158964000Y-97536000D02*
G75*
G03*
X158964000Y-97536000I-2500000J0D01*
G01*
%TO.C,G*%
X107930000Y-61955000D02*
X107930000Y-65045000D01*
X113479999Y-63500462D02*
G75*
G03*
X107930001Y-61955170I-2989999J462D01*
G01*
X107930000Y-65044830D02*
G75*
G03*
X113480000Y-63499538I2560000J1544830D01*
G01*
X112990000Y-63500000D02*
G75*
G03*
X112990000Y-63500000I-2500000J0D01*
G01*
%TO.C,B*%
X184130000Y-61955000D02*
X184130000Y-65045000D01*
X189679999Y-63500462D02*
G75*
G03*
X184130001Y-61955170I-2989999J462D01*
G01*
X184130000Y-65044830D02*
G75*
G03*
X189680000Y-63499538I2560000J1544830D01*
G01*
X189190000Y-63500000D02*
G75*
G03*
X189190000Y-63500000I-2500000J0D01*
G01*
%TO.C,H*%
X92944000Y-95991000D02*
X92944000Y-99081000D01*
X98493999Y-97536462D02*
G75*
G03*
X92944001Y-95991170I-2989999J462D01*
G01*
X92944000Y-99080830D02*
G75*
G03*
X98494000Y-97535538I2560000J1544830D01*
G01*
X98004000Y-97536000D02*
G75*
G03*
X98004000Y-97536000I-2500000J0D01*
G01*
%TO.C,C2*%
X154383000Y-147463225D02*
X154383000Y-147963225D01*
X154633000Y-147713225D02*
X154133000Y-147713225D01*
X155488000Y-150268000D02*
X150328000Y-150268000D01*
X155488000Y-150308000D02*
X150328000Y-150308000D01*
X155487000Y-150348000D02*
X150329000Y-150348000D01*
X155486000Y-150388000D02*
X150330000Y-150388000D01*
X155484000Y-150428000D02*
X150332000Y-150428000D01*
X155481000Y-150468000D02*
X150335000Y-150468000D01*
X155477000Y-150508000D02*
X153948000Y-150508000D01*
X151868000Y-150508000D02*
X150339000Y-150508000D01*
X155473000Y-150548000D02*
X153948000Y-150548000D01*
X151868000Y-150548000D02*
X150343000Y-150548000D01*
X155469000Y-150588000D02*
X153948000Y-150588000D01*
X151868000Y-150588000D02*
X150347000Y-150588000D01*
X155464000Y-150628000D02*
X153948000Y-150628000D01*
X151868000Y-150628000D02*
X150352000Y-150628000D01*
X155458000Y-150668000D02*
X153948000Y-150668000D01*
X151868000Y-150668000D02*
X150358000Y-150668000D01*
X155451000Y-150708000D02*
X153948000Y-150708000D01*
X151868000Y-150708000D02*
X150365000Y-150708000D01*
X155444000Y-150748000D02*
X153948000Y-150748000D01*
X151868000Y-150748000D02*
X150372000Y-150748000D01*
X155436000Y-150788000D02*
X153948000Y-150788000D01*
X151868000Y-150788000D02*
X150380000Y-150788000D01*
X155428000Y-150828000D02*
X153948000Y-150828000D01*
X151868000Y-150828000D02*
X150388000Y-150828000D01*
X155419000Y-150868000D02*
X153948000Y-150868000D01*
X151868000Y-150868000D02*
X150397000Y-150868000D01*
X155409000Y-150908000D02*
X153948000Y-150908000D01*
X151868000Y-150908000D02*
X150407000Y-150908000D01*
X155399000Y-150948000D02*
X153948000Y-150948000D01*
X151868000Y-150948000D02*
X150417000Y-150948000D01*
X155388000Y-150989000D02*
X153948000Y-150989000D01*
X151868000Y-150989000D02*
X150428000Y-150989000D01*
X155376000Y-151029000D02*
X153948000Y-151029000D01*
X151868000Y-151029000D02*
X150440000Y-151029000D01*
X155363000Y-151069000D02*
X153948000Y-151069000D01*
X151868000Y-151069000D02*
X150453000Y-151069000D01*
X155350000Y-151109000D02*
X153948000Y-151109000D01*
X151868000Y-151109000D02*
X150466000Y-151109000D01*
X155336000Y-151149000D02*
X153948000Y-151149000D01*
X151868000Y-151149000D02*
X150480000Y-151149000D01*
X155322000Y-151189000D02*
X153948000Y-151189000D01*
X151868000Y-151189000D02*
X150494000Y-151189000D01*
X155306000Y-151229000D02*
X153948000Y-151229000D01*
X151868000Y-151229000D02*
X150510000Y-151229000D01*
X155290000Y-151269000D02*
X153948000Y-151269000D01*
X151868000Y-151269000D02*
X150526000Y-151269000D01*
X155273000Y-151309000D02*
X153948000Y-151309000D01*
X151868000Y-151309000D02*
X150543000Y-151309000D01*
X155256000Y-151349000D02*
X153948000Y-151349000D01*
X151868000Y-151349000D02*
X150560000Y-151349000D01*
X155237000Y-151389000D02*
X153948000Y-151389000D01*
X151868000Y-151389000D02*
X150579000Y-151389000D01*
X155218000Y-151429000D02*
X153948000Y-151429000D01*
X151868000Y-151429000D02*
X150598000Y-151429000D01*
X155198000Y-151469000D02*
X153948000Y-151469000D01*
X151868000Y-151469000D02*
X150618000Y-151469000D01*
X155176000Y-151509000D02*
X153948000Y-151509000D01*
X151868000Y-151509000D02*
X150640000Y-151509000D01*
X155155000Y-151549000D02*
X153948000Y-151549000D01*
X151868000Y-151549000D02*
X150661000Y-151549000D01*
X155132000Y-151589000D02*
X153948000Y-151589000D01*
X151868000Y-151589000D02*
X150684000Y-151589000D01*
X155108000Y-151629000D02*
X153948000Y-151629000D01*
X151868000Y-151629000D02*
X150708000Y-151629000D01*
X155083000Y-151669000D02*
X153948000Y-151669000D01*
X151868000Y-151669000D02*
X150733000Y-151669000D01*
X155057000Y-151709000D02*
X153948000Y-151709000D01*
X151868000Y-151709000D02*
X150759000Y-151709000D01*
X155030000Y-151749000D02*
X153948000Y-151749000D01*
X151868000Y-151749000D02*
X150786000Y-151749000D01*
X155003000Y-151789000D02*
X153948000Y-151789000D01*
X151868000Y-151789000D02*
X150813000Y-151789000D01*
X154973000Y-151829000D02*
X153948000Y-151829000D01*
X151868000Y-151829000D02*
X150843000Y-151829000D01*
X154943000Y-151869000D02*
X153948000Y-151869000D01*
X151868000Y-151869000D02*
X150873000Y-151869000D01*
X154912000Y-151909000D02*
X153948000Y-151909000D01*
X151868000Y-151909000D02*
X150904000Y-151909000D01*
X154879000Y-151949000D02*
X153948000Y-151949000D01*
X151868000Y-151949000D02*
X150937000Y-151949000D01*
X154845000Y-151989000D02*
X153948000Y-151989000D01*
X151868000Y-151989000D02*
X150971000Y-151989000D01*
X154809000Y-152029000D02*
X153948000Y-152029000D01*
X151868000Y-152029000D02*
X151007000Y-152029000D01*
X154772000Y-152069000D02*
X153948000Y-152069000D01*
X151868000Y-152069000D02*
X151044000Y-152069000D01*
X154734000Y-152109000D02*
X153948000Y-152109000D01*
X151868000Y-152109000D02*
X151082000Y-152109000D01*
X154693000Y-152149000D02*
X153948000Y-152149000D01*
X151868000Y-152149000D02*
X151123000Y-152149000D01*
X154651000Y-152189000D02*
X153948000Y-152189000D01*
X151868000Y-152189000D02*
X151165000Y-152189000D01*
X154607000Y-152229000D02*
X153948000Y-152229000D01*
X151868000Y-152229000D02*
X151209000Y-152229000D01*
X154561000Y-152269000D02*
X153948000Y-152269000D01*
X151868000Y-152269000D02*
X151255000Y-152269000D01*
X154513000Y-152309000D02*
X153948000Y-152309000D01*
X151868000Y-152309000D02*
X151303000Y-152309000D01*
X154462000Y-152349000D02*
X153948000Y-152349000D01*
X151868000Y-152349000D02*
X151354000Y-152349000D01*
X154408000Y-152389000D02*
X153948000Y-152389000D01*
X151868000Y-152389000D02*
X151408000Y-152389000D01*
X154351000Y-152429000D02*
X153948000Y-152429000D01*
X151868000Y-152429000D02*
X151465000Y-152429000D01*
X154291000Y-152469000D02*
X153948000Y-152469000D01*
X151868000Y-152469000D02*
X151525000Y-152469000D01*
X154227000Y-152509000D02*
X153948000Y-152509000D01*
X151868000Y-152509000D02*
X151589000Y-152509000D01*
X154159000Y-152549000D02*
X153948000Y-152549000D01*
X151868000Y-152549000D02*
X151657000Y-152549000D01*
X154086000Y-152589000D02*
X151730000Y-152589000D01*
X154006000Y-152629000D02*
X151810000Y-152629000D01*
X153919000Y-152669000D02*
X151897000Y-152669000D01*
X153823000Y-152709000D02*
X151993000Y-152709000D01*
X153713000Y-152749000D02*
X152103000Y-152749000D01*
X153585000Y-152789000D02*
X152231000Y-152789000D01*
X153426000Y-152829000D02*
X152390000Y-152829000D01*
X153192000Y-152869000D02*
X152624000Y-152869000D01*
X155528000Y-150268000D02*
G75*
G03*
X155528000Y-150268000I-2620000J0D01*
G01*
%TO.C,R4*%
X152170000Y-68580000D02*
X152940000Y-68580000D01*
X152940000Y-67210000D02*
X152940000Y-69950000D01*
X152940000Y-69950000D02*
X159480000Y-69950000D01*
X159480000Y-67210000D02*
X152940000Y-67210000D01*
X159480000Y-69950000D02*
X159480000Y-67210000D01*
X160250000Y-68580000D02*
X159480000Y-68580000D01*
%TO.C,E*%
X138410000Y-61955000D02*
X138410000Y-65045000D01*
X143959999Y-63500462D02*
G75*
G03*
X138410001Y-61955170I-2989999J462D01*
G01*
X138410000Y-65044830D02*
G75*
G03*
X143960000Y-63499538I2560000J1544830D01*
G01*
X143470000Y-63500000D02*
G75*
G03*
X143470000Y-63500000I-2500000J0D01*
G01*
%TO.C,R2*%
X182904000Y-102616000D02*
X183674000Y-102616000D01*
X183674000Y-101246000D02*
X183674000Y-103986000D01*
X183674000Y-103986000D02*
X190214000Y-103986000D01*
X190214000Y-101246000D02*
X183674000Y-101246000D01*
X190214000Y-103986000D02*
X190214000Y-101246000D01*
X190984000Y-102616000D02*
X190214000Y-102616000D01*
%TO.C,E*%
X138664000Y-95991000D02*
X138664000Y-99081000D01*
X144213999Y-97536462D02*
G75*
G03*
X138664001Y-95991170I-2989999J462D01*
G01*
X138664000Y-99080830D02*
G75*
G03*
X144214000Y-97535538I2560000J1544830D01*
G01*
X143724000Y-97536000D02*
G75*
G03*
X143724000Y-97536000I-2500000J0D01*
G01*
%TO.C,SN54HC595*%
X158795000Y-74830000D02*
X138355000Y-74830000D01*
X138355000Y-74830000D02*
X138355000Y-80130000D01*
X158795000Y-76480000D02*
X158795000Y-74830000D01*
X158795000Y-80130000D02*
X158795000Y-78480000D01*
X138355000Y-80130000D02*
X158795000Y-80130000D01*
X158795000Y-76480000D02*
G75*
G03*
X158795000Y-78480000I0J-1000000D01*
G01*
%TO.C,PWR*%
X157384000Y-156956000D02*
X157384000Y-159456000D01*
X157384000Y-159456000D02*
X159884000Y-159456000D01*
X157684000Y-155136000D02*
X157684000Y-159156000D01*
X157684000Y-156846000D02*
X158184000Y-156846000D01*
X157684000Y-157656000D02*
X158684000Y-157656000D01*
X157684000Y-159156000D02*
X165404000Y-159156000D01*
X158184000Y-155636000D02*
X164904000Y-155636000D01*
X158184000Y-156846000D02*
X158184000Y-155636000D01*
X158684000Y-157656000D02*
X158684000Y-159156000D01*
X164404000Y-157656000D02*
X164404000Y-159156000D01*
X164904000Y-155636000D02*
X164904000Y-156846000D01*
X164904000Y-156846000D02*
X165404000Y-156846000D01*
X165404000Y-155136000D02*
X157684000Y-155136000D01*
X165404000Y-157656000D02*
X164404000Y-157656000D01*
X165404000Y-159156000D02*
X165404000Y-155136000D01*
%TO.C,REF\u002A\u002A*%
X140680000Y-87440000D02*
X140680000Y-89940000D01*
X140680000Y-89940000D02*
X143180000Y-89940000D01*
X140980000Y-85620000D02*
X140980000Y-89640000D01*
X140980000Y-87330000D02*
X141480000Y-87330000D01*
X140980000Y-88140000D02*
X141980000Y-88140000D01*
X140980000Y-89640000D02*
X156200000Y-89640000D01*
X141480000Y-86120000D02*
X155700000Y-86120000D01*
X141480000Y-87330000D02*
X141480000Y-86120000D01*
X141980000Y-88140000D02*
X141980000Y-89640000D01*
X155200000Y-88140000D02*
X155200000Y-89640000D01*
X155700000Y-86120000D02*
X155700000Y-87330000D01*
X155700000Y-87330000D02*
X156200000Y-87330000D01*
X156200000Y-85620000D02*
X140980000Y-85620000D01*
X156200000Y-88140000D02*
X155200000Y-88140000D01*
X156200000Y-89640000D02*
X156200000Y-85620000D01*
%TO.C,D*%
X153650000Y-61955000D02*
X153650000Y-65045000D01*
X159199999Y-63500462D02*
G75*
G03*
X153650001Y-61955170I-2989999J462D01*
G01*
X153650000Y-65044830D02*
G75*
G03*
X159200000Y-63499538I2560000J1544830D01*
G01*
X158710000Y-63500000D02*
G75*
G03*
X158710000Y-63500000I-2500000J0D01*
G01*
%TO.C,C1*%
X160987000Y-147503225D02*
X160987000Y-148003225D01*
X161237000Y-147753225D02*
X160737000Y-147753225D01*
X162092000Y-150308000D02*
X156932000Y-150308000D01*
X162092000Y-150348000D02*
X156932000Y-150348000D01*
X162091000Y-150388000D02*
X156933000Y-150388000D01*
X162090000Y-150428000D02*
X156934000Y-150428000D01*
X162088000Y-150468000D02*
X156936000Y-150468000D01*
X162085000Y-150508000D02*
X156939000Y-150508000D01*
X162081000Y-150548000D02*
X160552000Y-150548000D01*
X158472000Y-150548000D02*
X156943000Y-150548000D01*
X162077000Y-150588000D02*
X160552000Y-150588000D01*
X158472000Y-150588000D02*
X156947000Y-150588000D01*
X162073000Y-150628000D02*
X160552000Y-150628000D01*
X158472000Y-150628000D02*
X156951000Y-150628000D01*
X162068000Y-150668000D02*
X160552000Y-150668000D01*
X158472000Y-150668000D02*
X156956000Y-150668000D01*
X162062000Y-150708000D02*
X160552000Y-150708000D01*
X158472000Y-150708000D02*
X156962000Y-150708000D01*
X162055000Y-150748000D02*
X160552000Y-150748000D01*
X158472000Y-150748000D02*
X156969000Y-150748000D01*
X162048000Y-150788000D02*
X160552000Y-150788000D01*
X158472000Y-150788000D02*
X156976000Y-150788000D01*
X162040000Y-150828000D02*
X160552000Y-150828000D01*
X158472000Y-150828000D02*
X156984000Y-150828000D01*
X162032000Y-150868000D02*
X160552000Y-150868000D01*
X158472000Y-150868000D02*
X156992000Y-150868000D01*
X162023000Y-150908000D02*
X160552000Y-150908000D01*
X158472000Y-150908000D02*
X157001000Y-150908000D01*
X162013000Y-150948000D02*
X160552000Y-150948000D01*
X158472000Y-150948000D02*
X157011000Y-150948000D01*
X162003000Y-150988000D02*
X160552000Y-150988000D01*
X158472000Y-150988000D02*
X157021000Y-150988000D01*
X161992000Y-151029000D02*
X160552000Y-151029000D01*
X158472000Y-151029000D02*
X157032000Y-151029000D01*
X161980000Y-151069000D02*
X160552000Y-151069000D01*
X158472000Y-151069000D02*
X157044000Y-151069000D01*
X161967000Y-151109000D02*
X160552000Y-151109000D01*
X158472000Y-151109000D02*
X157057000Y-151109000D01*
X161954000Y-151149000D02*
X160552000Y-151149000D01*
X158472000Y-151149000D02*
X157070000Y-151149000D01*
X161940000Y-151189000D02*
X160552000Y-151189000D01*
X158472000Y-151189000D02*
X157084000Y-151189000D01*
X161926000Y-151229000D02*
X160552000Y-151229000D01*
X158472000Y-151229000D02*
X157098000Y-151229000D01*
X161910000Y-151269000D02*
X160552000Y-151269000D01*
X158472000Y-151269000D02*
X157114000Y-151269000D01*
X161894000Y-151309000D02*
X160552000Y-151309000D01*
X158472000Y-151309000D02*
X157130000Y-151309000D01*
X161877000Y-151349000D02*
X160552000Y-151349000D01*
X158472000Y-151349000D02*
X157147000Y-151349000D01*
X161860000Y-151389000D02*
X160552000Y-151389000D01*
X158472000Y-151389000D02*
X157164000Y-151389000D01*
X161841000Y-151429000D02*
X160552000Y-151429000D01*
X158472000Y-151429000D02*
X157183000Y-151429000D01*
X161822000Y-151469000D02*
X160552000Y-151469000D01*
X158472000Y-151469000D02*
X157202000Y-151469000D01*
X161802000Y-151509000D02*
X160552000Y-151509000D01*
X158472000Y-151509000D02*
X157222000Y-151509000D01*
X161780000Y-151549000D02*
X160552000Y-151549000D01*
X158472000Y-151549000D02*
X157244000Y-151549000D01*
X161759000Y-151589000D02*
X160552000Y-151589000D01*
X158472000Y-151589000D02*
X157265000Y-151589000D01*
X161736000Y-151629000D02*
X160552000Y-151629000D01*
X158472000Y-151629000D02*
X157288000Y-151629000D01*
X161712000Y-151669000D02*
X160552000Y-151669000D01*
X158472000Y-151669000D02*
X157312000Y-151669000D01*
X161687000Y-151709000D02*
X160552000Y-151709000D01*
X158472000Y-151709000D02*
X157337000Y-151709000D01*
X161661000Y-151749000D02*
X160552000Y-151749000D01*
X158472000Y-151749000D02*
X157363000Y-151749000D01*
X161634000Y-151789000D02*
X160552000Y-151789000D01*
X158472000Y-151789000D02*
X157390000Y-151789000D01*
X161607000Y-151829000D02*
X160552000Y-151829000D01*
X158472000Y-151829000D02*
X157417000Y-151829000D01*
X161577000Y-151869000D02*
X160552000Y-151869000D01*
X158472000Y-151869000D02*
X157447000Y-151869000D01*
X161547000Y-151909000D02*
X160552000Y-151909000D01*
X158472000Y-151909000D02*
X157477000Y-151909000D01*
X161516000Y-151949000D02*
X160552000Y-151949000D01*
X158472000Y-151949000D02*
X157508000Y-151949000D01*
X161483000Y-151989000D02*
X160552000Y-151989000D01*
X158472000Y-151989000D02*
X157541000Y-151989000D01*
X161449000Y-152029000D02*
X160552000Y-152029000D01*
X158472000Y-152029000D02*
X157575000Y-152029000D01*
X161413000Y-152069000D02*
X160552000Y-152069000D01*
X158472000Y-152069000D02*
X157611000Y-152069000D01*
X161376000Y-152109000D02*
X160552000Y-152109000D01*
X158472000Y-152109000D02*
X157648000Y-152109000D01*
X161338000Y-152149000D02*
X160552000Y-152149000D01*
X158472000Y-152149000D02*
X157686000Y-152149000D01*
X161297000Y-152189000D02*
X160552000Y-152189000D01*
X158472000Y-152189000D02*
X157727000Y-152189000D01*
X161255000Y-152229000D02*
X160552000Y-152229000D01*
X158472000Y-152229000D02*
X157769000Y-152229000D01*
X161211000Y-152269000D02*
X160552000Y-152269000D01*
X158472000Y-152269000D02*
X157813000Y-152269000D01*
X161165000Y-152309000D02*
X160552000Y-152309000D01*
X158472000Y-152309000D02*
X157859000Y-152309000D01*
X161117000Y-152349000D02*
X160552000Y-152349000D01*
X158472000Y-152349000D02*
X157907000Y-152349000D01*
X161066000Y-152389000D02*
X160552000Y-152389000D01*
X158472000Y-152389000D02*
X157958000Y-152389000D01*
X161012000Y-152429000D02*
X160552000Y-152429000D01*
X158472000Y-152429000D02*
X158012000Y-152429000D01*
X160955000Y-152469000D02*
X160552000Y-152469000D01*
X158472000Y-152469000D02*
X158069000Y-152469000D01*
X160895000Y-152509000D02*
X160552000Y-152509000D01*
X158472000Y-152509000D02*
X158129000Y-152509000D01*
X160831000Y-152549000D02*
X160552000Y-152549000D01*
X158472000Y-152549000D02*
X158193000Y-152549000D01*
X160763000Y-152589000D02*
X160552000Y-152589000D01*
X158472000Y-152589000D02*
X158261000Y-152589000D01*
X160690000Y-152629000D02*
X158334000Y-152629000D01*
X160610000Y-152669000D02*
X158414000Y-152669000D01*
X160523000Y-152709000D02*
X158501000Y-152709000D01*
X160427000Y-152749000D02*
X158597000Y-152749000D01*
X160317000Y-152789000D02*
X158707000Y-152789000D01*
X160189000Y-152829000D02*
X158835000Y-152829000D01*
X160030000Y-152869000D02*
X158994000Y-152869000D01*
X159796000Y-152909000D02*
X159228000Y-152909000D01*
X162132000Y-150308000D02*
G75*
G03*
X162132000Y-150308000I-2620000J0D01*
G01*
%TD*%
M02*
